<svg width="29" height="19" viewBox="0 0 29 19" fill="none" xmlns="http://www.w3.org/2000/svg">
<path fill-rule="evenodd" clip-rule="evenodd" d="M26.135 1H16.006H13.0048H2.87574C1.84146 1 1 1.84146 1 2.87574V10.0036C1 11.0379 1.84146 11.8793 2.87574 11.8793H13.0048H16.006H26.135C27.1693 11.8793 28.0107 11.0379 28.0107 10.0036V2.87574C28.0107 1.84146 27.1693 1 26.135 1ZM2.87574 1.7503H13.0048H16.006H26.135C26.7555 1.7503 27.2604 2.25525 27.2604 2.87574V8.12783H16.006H13.0048H1.7503V2.87574C1.7503 2.25525 2.25525 1.7503 2.87574 1.7503ZM24.6344 11.129H26.135C26.7555 11.129 27.2604 10.6241 27.2604 10.0036V8.87813H16.006H13.0048H1.7503V10.0036C1.7503 10.6241 2.25525 11.129 2.87574 11.129H4.37634H24.6344Z" fill="currentColor"/>
<path d="M27.2604 8.12783V8.37783H27.5104V8.12783H27.2604ZM1.7503 8.12783H1.5003V8.37783H1.7503V8.12783ZM27.2604 8.87813H27.5104V8.62813H27.2604V8.87813ZM1.7503 8.87813V8.62813H1.5003V8.87813H1.7503ZM16.006 1.25H26.135V0.75H16.006V1.25ZM13.0048 1.25H16.006V0.75H13.0048V1.25ZM2.87574 1.25H13.0048V0.75H2.87574V1.25ZM1.25 2.87574C1.25 1.97953 1.97953 1.25 2.87574 1.25V0.75C1.70339 0.75 0.75 1.70339 0.75 2.87574H1.25ZM1.25 10.0036V2.87574H0.75V10.0036H1.25ZM2.87574 11.6293C1.97953 11.6293 1.25 10.8998 1.25 10.0036H0.75C0.75 11.1759 1.70339 12.1293 2.87574 12.1293V11.6293ZM13.0048 11.6293H2.87574V12.1293H13.0048V11.6293ZM16.006 11.6293H13.0048V12.1293H16.006V11.6293ZM26.135 11.6293H16.006V12.1293H26.135V11.6293ZM27.7607 10.0036C27.7607 10.8998 27.0312 11.6293 26.135 11.6293V12.1293C27.3073 12.1293 28.2607 11.1759 28.2607 10.0036H27.7607ZM27.7607 2.87574V10.0036H28.2607V2.87574H27.7607ZM26.135 1.25C27.0312 1.25 27.7607 1.97953 27.7607 2.87574H28.2607C28.2607 1.70339 27.3073 0.75 26.135 0.75V1.25ZM13.0048 1.5003H2.87574V2.0003H13.0048V1.5003ZM16.006 1.5003H13.0048V2.0003H16.006V1.5003ZM26.135 1.5003H16.006V2.0003H26.135V1.5003ZM27.5104 2.87574C27.5104 2.11718 26.8935 1.5003 26.135 1.5003V2.0003C26.6174 2.0003 27.0104 2.39332 27.0104 2.87574H27.5104ZM27.5104 8.12783V2.87574H27.0104V8.12783H27.5104ZM16.006 8.37783H27.2604V7.87783H16.006V8.37783ZM13.0048 8.37783H16.006V7.87783H13.0048V8.37783ZM1.7503 8.37783H13.0048V7.87783H1.7503V8.37783ZM1.5003 2.87574V8.12783H2.0003V2.87574H1.5003ZM2.87574 1.5003C2.11718 1.5003 1.5003 2.11718 1.5003 2.87574H2.0003C2.0003 2.39332 2.39332 2.0003 2.87574 2.0003V1.5003ZM26.135 10.879H24.6344V11.379H26.135V10.879ZM27.0104 10.0036C27.0104 10.486 26.6174 10.879 26.135 10.879V11.379C26.8935 11.379 27.5104 10.7621 27.5104 10.0036H27.0104ZM27.0104 8.87813V10.0036H27.5104V8.87813H27.0104ZM16.006 9.12813H27.2604V8.62813H16.006V9.12813ZM13.0048 9.12813H16.006V8.62813H13.0048V9.12813ZM1.7503 9.12813H13.0048V8.62813H1.7503V9.12813ZM2.0003 10.0036V8.87813H1.5003V10.0036H2.0003ZM2.87574 10.879C2.39332 10.879 2.0003 10.486 2.0003 10.0036H1.5003C1.5003 10.7621 2.11718 11.379 2.87574 11.379V10.879ZM4.37634 10.879H2.87574V11.379H4.37634V10.879ZM24.6344 10.879H4.37634V11.379H24.6344V10.879Z" fill="currentColor"/>
<rect x="3.87575" y="5.87694" width="3.00119" height="0.750298" rx="0.375149" fill="currentColor"/>
<rect x="7.62723" y="5.87694" width="0.750298" height="0.750298" rx="0.375149" fill="currentColor"/>
<path d="M6.25209 13.3799H5.50179C5.50179 13.6785 5.3885 13.8106 5.21706 14.0109C5.0096 14.2525 4.7515 14.5538 4.7515 15.13C4.7515 15.7066 5.0096 16.0075 5.21706 16.2494C5.3885 16.4498 5.50179 16.5818 5.50179 16.8808C5.50179 17.1798 5.3885 17.3122 5.21668 17.5122C5.0096 17.7542 4.7515 18.0554 4.7515 18.632H5.50179C5.50179 18.333 5.61509 18.2006 5.78691 18.0006C5.99399 17.7587 6.25209 17.457 6.25209 16.8808C6.25209 16.3046 5.99436 16.0033 5.78691 15.7614C5.61509 15.5614 5.50179 15.429 5.50179 15.13C5.50179 14.831 5.61509 14.6989 5.78653 14.499C5.99399 14.257 6.25209 13.9561 6.25209 13.3799Z" fill="currentColor" stroke="currentColor" stroke-width="0.5"/>
<path d="M10.7539 13.3799H10.0036C10.0036 13.6785 9.89028 13.8106 9.71884 14.0109C9.51138 14.2525 9.25328 14.5538 9.25328 15.13C9.25328 15.7066 9.51138 16.0075 9.71884 16.2494C9.89028 16.4498 10.0036 16.5818 10.0036 16.8808C10.0036 17.1798 9.89028 17.3122 9.71847 17.5122C9.51138 17.7542 9.25328 18.0554 9.25328 18.632H10.0036C10.0036 18.333 10.1169 18.2006 10.2887 18.0006C10.4958 17.7587 10.7539 17.457 10.7539 16.8808C10.7539 16.3046 10.4961 16.0033 10.2887 15.7614C10.1169 15.5614 10.0036 15.429 10.0036 15.13C10.0036 14.831 10.1169 14.6989 10.2883 14.499C10.4958 14.257 10.7539 13.9561 10.7539 13.3799Z" fill="currentColor" stroke="currentColor" stroke-width="0.5"/>
<path d="M15.2557 13.3799H14.5054C14.5054 13.6785 14.3921 13.8106 14.2206 14.0109C14.0132 14.2525 13.7551 14.5538 13.7551 15.13C13.7551 15.7066 14.0132 16.0075 14.2206 16.2494C14.3921 16.4498 14.5054 16.5818 14.5054 16.8808C14.5054 17.1798 14.3921 17.3122 14.2203 17.5122C14.0132 17.7542 13.7551 18.0554 13.7551 18.632H14.5054C14.5054 18.333 14.6187 18.2006 14.7905 18.0006C14.9976 17.7587 15.2557 17.457 15.2557 16.8808C15.2557 16.3046 14.9979 16.0033 14.7905 15.7614C14.6187 15.5614 14.5054 15.429 14.5054 15.13C14.5054 14.831 14.6187 14.6989 14.7901 14.499C14.9976 14.257 15.2557 13.9561 15.2557 13.3799Z" fill="currentColor" stroke="currentColor" stroke-width="0.5"/>
<path d="M19.7574 13.3799H19.0071C19.0071 13.6785 18.8939 13.8106 18.7224 14.0109C18.515 14.2525 18.2569 14.5538 18.2569 15.13C18.2569 15.7066 18.515 16.0075 18.7224 16.2494C18.8939 16.4498 19.0071 16.5818 19.0071 16.8808C19.0071 17.1798 18.8939 17.3122 18.722 17.5122C18.515 17.7542 18.2569 18.0554 18.2569 18.632H19.0071C19.0071 18.333 19.1204 18.2006 19.2923 18.0006C19.4993 17.7587 19.7574 17.457 19.7574 16.8808C19.7574 16.3046 19.4997 16.0033 19.2923 15.7614C19.1204 15.5614 19.0071 15.429 19.0071 15.13C19.0071 14.831 19.1204 14.6989 19.2919 14.499C19.4993 14.257 19.7574 13.9561 19.7574 13.3799Z" fill="currentColor" stroke="currentColor" stroke-width="0.5"/>
<path d="M24.2592 13.3799H23.5089C23.5089 13.6785 23.3956 13.8106 23.2242 14.0109C23.0167 14.2525 22.7586 14.5538 22.7586 15.13C22.7586 15.7066 23.0167 16.0075 23.2242 16.2494C23.3956 16.4498 23.5089 16.5818 23.5089 16.8808C23.5089 17.1798 23.3956 17.3122 23.2238 17.5122C23.0167 17.7542 22.7586 18.0554 22.7586 18.632H23.5089C23.5089 18.333 23.6222 18.2006 23.794 18.0006C24.0011 17.7587 24.2592 17.457 24.2592 16.8808C24.2592 16.3046 24.0015 16.0033 23.794 15.7614C23.6222 15.5614 23.5089 15.429 23.5089 15.13C23.5089 14.831 23.6222 14.6989 23.7937 14.499C24.0011 14.257 24.2592 13.9561 24.2592 13.3799Z" fill="currentColor" stroke="currentColor" stroke-width="0.5"/>
</svg>
