<svg width="16" height="16" viewBox="0 0 16 16" fill="none" xmlns="http://www.w3.org/2000/svg">
<g id="Group 22">
<g id="Shape">
<path fill-rule="evenodd" clip-rule="evenodd" d="M4.71162 1.00035C4.54952 1.01814 4.4279 1.15684 4.43142 1.31987V2.23911H2.76007C1.79562 2.23911 1.00024 3.03267 1.00024 3.99894V5.84726V5.88658C0.99992 5.89477 0.99992 5.90297 1.00024 5.91115V13.0881C1.00024 14.0544 1.7952 14.848 2.76007 14.848H13.088C14.0529 14.848 14.8429 14.0544 14.8429 13.0881V5.93082C14.8431 5.92426 14.8431 5.91771 14.8429 5.91115C14.8436 5.8997 14.8436 5.88821 14.8429 5.87675V3.99894C14.8429 3.03267 14.0525 2.23911 13.088 2.23911H11.3626V1.31987C11.3639 1.23472 11.3307 1.15267 11.2705 1.09245C11.2103 1.03224 11.1282 0.999005 11.0431 1.00035C10.9596 1.00164 10.8801 1.03603 10.822 1.09596C10.764 1.15588 10.7321 1.23643 10.7334 1.31987V2.23911H5.06063V1.31987C5.06197 1.23472 5.02874 1.15267 4.96853 1.09245C4.90831 1.03224 4.82626 0.999005 4.74111 1.00035C4.73128 0.999885 4.72144 0.999885 4.71162 1.00035ZM2.76007 2.86832H4.43142V3.78756C4.43117 3.90013 4.49108 4.00424 4.58852 4.0606C4.68596 4.11695 4.80609 4.11695 4.90353 4.0606C5.00097 4.00424 5.06088 3.90013 5.06063 3.78756V2.86832H10.7334V3.78756C10.7331 3.90013 10.793 4.00424 10.8905 4.0606C10.9879 4.11695 11.1081 4.11695 11.2055 4.0606C11.3029 4.00424 11.3628 3.90013 11.3626 3.78756V2.86832H13.088C13.7087 2.86832 14.2137 3.37516 14.2137 3.99894V5.59655H1.62945V3.99894C1.62945 3.37516 2.1394 2.86832 2.76007 2.86832ZM1.62945 6.22576H14.2137V13.0881C14.2137 13.7119 13.7083 14.2187 13.088 14.2187H2.76007C2.13982 14.2187 1.62945 13.7119 1.62945 13.0881V6.22576Z" fill="#7A40F2"/>
<path d="M4.43142 1.31987H4.68148L4.68136 1.31447L4.43142 1.31987ZM4.43142 2.23911V2.48911H4.68142V2.23911H4.43142ZM1.00024 5.88658L1.25024 5.89635V5.88658H1.00024ZM1.00024 5.91115H1.25043L1.25005 5.90139L1.00024 5.91115ZM14.8429 5.93082L14.5929 5.923V5.93082H14.8429ZM14.8429 5.91115L14.5933 5.89749L14.5927 5.90822L14.5931 5.91897L14.8429 5.91115ZM14.8429 5.87675H14.5926L14.5933 5.89042L14.8429 5.87675ZM11.3626 2.23911H11.1126V2.48911H11.3626V2.23911ZM11.3626 1.31987L11.1126 1.31593V1.31987H11.3626ZM11.0431 1.00035L11.047 1.25032L11.047 1.25031L11.0431 1.00035ZM10.7334 1.31987H10.9834L10.9834 1.31593L10.7334 1.31987ZM10.7334 2.23911V2.48911H10.9834V2.23911H10.7334ZM5.06063 2.23911H4.81063V2.48911H5.06063V2.23911ZM5.06063 1.31987L4.81063 1.31593V1.31987H5.06063ZM4.74111 1.00035L4.72939 1.25007L4.73722 1.25044L4.74505 1.25031L4.74111 1.00035ZM4.71162 1.00035L4.6999 0.750621L4.69209 0.750987L4.68433 0.751839L4.71162 1.00035ZM4.43142 2.86832H4.68142V2.61832H4.43142V2.86832ZM4.43142 3.78756L4.68142 3.78811V3.78756H4.43142ZM5.06063 3.78756H4.81063L4.81063 3.78811L5.06063 3.78756ZM5.06063 2.86832V2.61832H4.81063V2.86832H5.06063ZM10.7334 2.86832H10.9834V2.61832H10.7334V2.86832ZM10.7334 3.78756L10.9834 3.78811V3.78756H10.7334ZM11.3626 3.78756H11.1126L11.1126 3.78811L11.3626 3.78756ZM11.3626 2.86832V2.61832H11.1126V2.86832H11.3626ZM14.2137 5.59655V5.84655H14.4637V5.59655H14.2137ZM1.62945 5.59655H1.37945V5.84655H1.62945V5.59655ZM1.62945 6.22576V5.97576H1.37945V6.22576H1.62945ZM14.2137 6.22576H14.4637V5.97576H14.2137V6.22576ZM4.68433 0.751839C4.39343 0.78378 4.17516 1.03269 4.18148 1.32527L4.68136 1.31447C4.68064 1.28099 4.70562 1.25251 4.7389 1.24885L4.68433 0.751839ZM4.18142 1.31987V2.23911H4.68142V1.31987H4.18142ZM4.43142 1.98911H2.76007V2.48911H4.43142V1.98911ZM2.76007 1.98911C1.65771 1.98911 0.75024 2.89443 0.75024 3.99894H1.25024C1.25024 3.17091 1.93352 2.48911 2.76007 2.48911V1.98911ZM0.75024 3.99894V5.84726H1.25024V3.99894H0.75024ZM0.75024 5.84726V5.88658H1.25024V5.84726H0.75024ZM0.750431 5.87682C0.749856 5.89151 0.749856 5.90622 0.750431 5.92092L1.25005 5.90139C1.24998 5.89971 1.24998 5.89803 1.25005 5.89635L0.750431 5.87682ZM0.75024 5.91115V13.0881H1.25024V5.91115H0.75024ZM0.75024 13.0881C0.75024 14.1926 1.65726 15.098 2.76007 15.098V14.598C1.93314 14.598 1.25024 13.9162 1.25024 13.0881H0.75024ZM2.76007 15.098H13.088V14.598H2.76007V15.098ZM13.088 15.098C14.1917 15.098 15.0929 14.1917 15.0929 13.0881H14.5929C14.5929 13.9171 13.914 14.598 13.088 14.598V15.098ZM15.0929 13.0881V5.93082H14.5929V13.0881H15.0929ZM15.0928 5.93863C15.0932 5.92687 15.0932 5.9151 15.0928 5.90334L14.5931 5.91897C14.5931 5.92031 14.5931 5.92166 14.5931 5.923L15.0928 5.93863ZM15.0926 5.92482C15.0937 5.90426 15.0937 5.88365 15.0926 5.86308L14.5933 5.89042C14.5934 5.89277 14.5934 5.89513 14.5933 5.89749L15.0926 5.92482ZM15.0929 5.87675V3.99894H14.5929V5.87675H15.0929ZM15.0929 3.99894C15.0929 2.89534 14.1913 1.98911 13.088 1.98911V2.48911C13.9137 2.48911 14.5929 3.17 14.5929 3.99894H15.0929ZM13.088 1.98911H11.3626V2.48911H13.088V1.98911ZM11.6126 2.23911V1.31987H11.1126V2.23911H11.6126ZM11.6126 1.3238C11.615 1.171 11.5553 1.02374 11.4473 0.915677L11.0937 1.26923C11.1061 1.2816 11.1129 1.29845 11.1126 1.31593L11.6126 1.3238ZM11.4473 0.915677C11.3392 0.807612 11.1919 0.74797 11.0391 0.750377L11.047 1.25031C11.0645 1.25004 11.0813 1.25686 11.0937 1.26923L11.4473 0.915677ZM11.0392 0.750376C10.8895 0.752698 10.7468 0.814421 10.6425 0.921964L11.0016 1.26995C11.0135 1.25764 11.0298 1.25058 11.047 1.25032L11.0392 0.750376ZM10.6425 0.921964C10.5383 1.02951 10.4811 1.17406 10.4834 1.3238L10.9834 1.31593C10.9831 1.2988 10.9896 1.28226 11.0016 1.26995L10.6425 0.921964ZM10.4834 1.31987V2.23911H10.9834V1.31987H10.4834ZM10.7334 1.98911H5.06063V2.48911H10.7334V1.98911ZM5.31063 2.23911V1.31987H4.81063V2.23911H5.31063ZM5.3106 1.3238C5.31301 1.171 5.25337 1.02374 5.1453 0.915677L4.79175 1.26923C4.80411 1.2816 4.81094 1.29845 4.81066 1.31593L5.3106 1.3238ZM5.1453 0.915677C5.03724 0.807612 4.88998 0.74797 4.73717 0.750377L4.74505 1.25031C4.76253 1.25004 4.77938 1.25686 4.79175 1.26923L5.1453 0.915677ZM4.75283 0.750621C4.7352 0.749793 4.71753 0.749793 4.6999 0.750621L4.72334 1.25007C4.72535 1.24998 4.72737 1.24998 4.72939 1.25007L4.75283 0.750621ZM2.76007 3.11832H4.43142V2.61832H2.76007V3.11832ZM4.18142 2.86832V3.78756H4.68142V2.86832H4.18142ZM4.18142 3.78702C4.18098 3.98903 4.28849 4.17588 4.46337 4.27701L4.71368 3.84418C4.69367 3.83261 4.68137 3.81123 4.68142 3.78811L4.18142 3.78702ZM4.46337 4.27701C4.63824 4.37814 4.85382 4.37814 5.02869 4.27701L4.77837 3.84418C4.75836 3.85575 4.73369 3.85575 4.71368 3.84418L4.46337 4.27701ZM5.02869 4.27701C5.20356 4.17588 5.31108 3.98903 5.31063 3.78702L4.81063 3.78811C4.81068 3.81123 4.79838 3.83261 4.77837 3.84418L5.02869 4.27701ZM5.31063 3.78756V2.86832H4.81063V3.78756H5.31063ZM5.06063 3.11832H10.7334V2.61832H5.06063V3.11832ZM10.4834 2.86832V3.78756H10.9834V2.86832H10.4834ZM10.4834 3.78702C10.4829 3.98903 10.5905 4.17588 10.7653 4.27701L11.0156 3.84418C10.9956 3.83261 10.9833 3.81123 10.9834 3.78811L10.4834 3.78702ZM10.7653 4.27701C10.9402 4.37814 11.1558 4.37814 11.3307 4.27701L11.0803 3.84418C11.0603 3.85575 11.0357 3.85575 11.0156 3.84418L10.7653 4.27701ZM11.3307 4.27701C11.5055 4.17588 11.613 3.98903 11.6126 3.78702L11.1126 3.78811C11.1127 3.81123 11.1003 3.83261 11.0803 3.84418L11.3307 4.27701ZM11.6126 3.78756V2.86832H11.1126V3.78756H11.6126ZM11.3626 3.11832H13.088V2.61832H11.3626V3.11832ZM13.088 3.11832C13.5696 3.11832 13.9637 3.51226 13.9637 3.99894H14.4637C14.4637 3.23806 13.8477 2.61832 13.088 2.61832V3.11832ZM13.9637 3.99894V5.59655H14.4637V3.99894H13.9637ZM14.2137 5.34655H1.62945V5.84655H14.2137V5.34655ZM1.87945 5.59655V3.99894H1.37945V5.59655H1.87945ZM1.87945 3.99894C1.87945 3.51368 2.27703 3.11832 2.76007 3.11832V2.61832C2.00178 2.61832 1.37945 3.23664 1.37945 3.99894H1.87945ZM1.62945 6.47576H14.2137V5.97576H1.62945V6.47576ZM13.9637 6.22576V13.0881H14.4637V6.22576H13.9637ZM13.9637 13.0881C13.9637 13.5747 13.5693 13.9687 13.088 13.9687V14.4687C13.8472 14.4687 14.4637 13.8491 14.4637 13.0881H13.9637ZM13.088 13.9687H2.76007V14.4687H13.088V13.9687ZM2.76007 13.9687C2.27738 13.9687 1.87945 13.5733 1.87945 13.0881H1.37945C1.37945 13.8505 2.00226 14.4687 2.76007 14.4687V13.9687ZM1.87945 13.0881V6.22576H1.37945V13.0881H1.87945Z" fill="#7A40F2"/>
</g>
<circle id="Oval" cx="5.27775" cy="9.94444" r="1.16667" fill="#7A40F2"/>
<circle id="Oval Copy" cx="10.7222" cy="9.94444" r="1.16667" fill="#7A40F2"/>
</g>
</svg>
