<svg width="29" height="29" viewBox="0 0 29 29" fill="none" xmlns="http://www.w3.org/2000/svg">
<path fill-rule="evenodd" clip-rule="evenodd" d="M14.5413 8.65385C14.5413 7.18344 15.6356 6 16.9952 6H18.8128C20.1724 6 21.2667 7.18344 21.2667 8.65385V26.3462C21.2667 27.8166 20.1724 29 18.8128 29H16.9952C15.6356 29 14.5413 27.8166 14.5413 26.3462V8.65385ZM16.9952 7.37607C16.3383 7.37607 15.8137 7.94342 15.8137 8.65385V26.3462C15.8137 27.0566 16.3383 27.6239 16.9952 27.6239H18.8128C19.4697 27.6239 19.9943 27.0566 19.9943 26.3462V8.65385C19.9943 7.94342 19.4697 7.37607 18.8128 7.37607H16.9952ZM7.27065 14.5513C7.27065 13.0809 8.36491 11.8974 9.7245 11.8974H11.5422C12.9018 11.8974 13.996 13.0809 13.996 14.5513V26.3462C13.996 27.8166 12.9018 29 11.5422 29H9.7245C8.36491 29 7.27065 27.8166 7.27065 26.3462V14.5513ZM9.7245 13.2735C9.06762 13.2735 8.54302 13.8409 8.54302 14.5513V26.3462C8.54302 27.0566 9.06762 27.6239 9.7245 27.6239H11.5422C12.199 27.6239 12.7236 27.0566 12.7236 26.3462V14.5513C12.7236 13.8409 12.199 13.2735 11.5422 13.2735H9.7245ZM0 20.4487C0 18.9783 1.09426 17.7949 2.45385 17.7949H4.27151C5.6311 17.7949 6.72536 18.9783 6.72536 20.4487V26.3462C6.72536 27.8166 5.6311 29 4.27151 29H2.45385C1.09426 29 0 27.8166 0 26.3462V20.4487ZM2.45385 19.1709C1.79696 19.1709 1.27236 19.7383 1.27236 20.4487V26.3462C1.27236 27.0566 1.79696 27.6239 2.45385 27.6239H4.27151C4.92839 27.6239 5.45299 27.0566 5.45299 26.3462V20.4487C5.45299 19.7383 4.92839 19.1709 4.27151 19.1709H2.45385Z" fill="currentColor"/>
<path fill-rule="evenodd" clip-rule="evenodd" d="M21.2667 2.9C21.2667 1.29373 22.5605 0 24.1667 0H26.1001C27.7063 0 29.0001 1.29373 29.0001 2.9V26.1C29.0001 27.7063 27.7063 29 26.1001 29H24.1667C22.5605 29 21.2667 27.7063 21.2667 26.1V2.9ZM24.1667 1.93333C23.6282 1.93333 23.2001 2.36148 23.2001 2.9V26.1C23.2001 26.6385 23.6282 27.0667 24.1667 27.0667H26.1001C26.6386 27.0667 27.0667 26.6385 27.0667 26.1V2.9C27.0667 2.36148 26.6386 1.93333 26.1001 1.93333H24.1667Z" fill="currentColor"/>
</svg>
