<svg width="20" height="18" viewBox="0 0 20 18" fill="none" xmlns="http://www.w3.org/2000/svg">
<path d="M15.4998 9.00018C15.5 9.17748 15.4613 9.35308 15.3858 9.51687C15.3104 9.68066 15.1998 9.82943 15.0603 9.95463L7.56027 16.7046C7.42101 16.83 7.25567 16.9294 7.07371 16.9972C6.89175 17.0651 6.69673 17.1 6.49977 17.1C6.30282 17.1 6.1078 17.0651 5.92583 16.9972C5.74387 16.9294 5.57854 16.83 5.43927 16.7046C5.30001 16.5793 5.18953 16.4305 5.11416 16.2667C5.03879 16.103 5 15.9274 5 15.7502C5 15.5729 5.03879 15.3974 5.11416 15.2336C5.18953 15.0699 5.30001 14.9211 5.43927 14.7957L11.8788 9.00018L5.43927 3.20463C5.30001 3.07929 5.18953 2.93049 5.11416 2.76672C5.03879 2.60296 5 2.42744 5 2.25018C5 2.07292 5.03879 1.8974 5.11416 1.73364C5.18953 1.56987 5.30001 1.42107 5.43927 1.29573C5.57854 1.17039 5.74387 1.07096 5.92583 1.00313C6.1078 0.935297 6.30282 0.900384 6.49977 0.900384C6.69673 0.900384 6.89175 0.935297 7.07371 1.00313C7.25567 1.07096 7.42101 1.17039 7.56027 1.29573L15.0603 8.04573C15.1998 8.17093 15.3104 8.3197 15.3858 8.48349C15.4613 8.64728 15.5 8.82288 15.4998 9.00018Z" fill="#5C5F62"/>
</svg>
