<svg width="18" height="20" viewBox="0 0 18 20" fill="none" xmlns="http://www.w3.org/2000/svg">
<path d="M8.99979 15.4998C8.82249 15.5 8.64689 15.4613 8.4831 15.3858C8.3193 15.3104 8.17054 15.1998 8.04534 15.0603L1.29534 7.56027C1.17 7.42101 1.07057 7.25567 1.00274 7.07371C0.934907 6.89175 0.899994 6.69673 0.899994 6.49977C0.899994 6.30282 0.934907 6.1078 1.00274 5.92583C1.07057 5.74387 1.17 5.57854 1.29534 5.43927C1.42068 5.30001 1.56948 5.18953 1.73325 5.11416C1.89701 5.03879 2.07253 5 2.24979 5C2.42705 5 2.60257 5.03879 2.76633 5.11416C2.9301 5.18953 3.0789 5.30001 3.20424 5.43927L8.99979 11.8788L14.7953 5.43927C14.9207 5.30001 15.0695 5.18953 15.2332 5.11416C15.397 5.03879 15.5725 5 15.7498 5C15.927 5 16.1026 5.03879 16.2663 5.11416C16.4301 5.18953 16.5789 5.30001 16.7042 5.43927C16.8296 5.57854 16.929 5.74387 16.9968 5.92583C17.0647 6.1078 17.0996 6.30282 17.0996 6.49977C17.0996 6.69673 17.0647 6.89175 16.9968 7.07371C16.929 7.25567 16.8296 7.42101 16.7042 7.56027L9.95424 15.0603C9.82904 15.1998 9.68027 15.3104 9.51648 15.3858C9.35268 15.4613 9.17709 15.5 8.99979 15.4998Z" fill="#5C5F62"/>
</svg>
