<svg width="12" height="8" viewBox="0 0 12 8" fill="none" xmlns="http://www.w3.org/2000/svg">
<path d="M6 8C5.86866 8.00015 5.73859 7.97065 5.61726 7.91318C5.49592 7.85572 5.38572 7.77142 5.29298 7.66513L0.292856 1.95073C0.20001 1.84462 0.126359 1.71864 0.0761108 1.58C0.0258625 1.44136 9.78302e-10 1.29277 0 1.14271C-9.78301e-10 0.992646 0.0258625 0.844053 0.0761108 0.705413C0.126359 0.566773 0.20001 0.440802 0.292856 0.334692C0.385703 0.228581 0.495928 0.14441 0.617239 0.0869835C0.738549 0.029557 0.868569 -1.11805e-09 0.999874 0C1.13118 1.11806e-09 1.2612 0.029557 1.38251 0.0869835C1.50382 0.14441 1.61404 0.228581 1.70689 0.334692L6 5.24108L10.2931 0.334692C10.386 0.228581 10.4962 0.14441 10.6175 0.0869835C10.7388 0.029557 10.8688 2.23611e-09 11.0001 0C11.1314 -2.23611e-09 11.2615 0.029557 11.3828 0.0869835C11.5041 0.14441 11.6143 0.228581 11.7071 0.334691C11.8 0.440802 11.8736 0.566773 11.9239 0.705413C11.9741 0.844053 12 0.992646 12 1.14271C12 1.29277 11.9741 1.44136 11.9239 1.58C11.8736 1.71864 11.8 1.84462 11.7071 1.95073L6.70702 7.66513C6.61428 7.77142 6.50408 7.85572 6.38274 7.91318C6.26141 7.97065 6.13134 8.00015 6 8Z" fill="currentColor"/>
</svg>
