<svg width="30" height="30" viewBox="0 0 30 30" fill="none" xmlns="http://www.w3.org/2000/svg">
<path d="M10.3333 15H2.55556C2.143 15 1.74733 14.8361 1.45561 14.5444C1.16389 14.2527 1 13.857 1 13.4444V2.55556C1 2.143 1.16389 1.74733 1.45561 1.45561C1.74733 1.16389 2.143 1 2.55556 1H10.3333C10.7459 1 11.1416 1.16389 11.4333 1.45561C11.725 1.74733 11.8889 2.143 11.8889 2.55556V13.4444C11.8889 13.857 11.725 14.2527 11.4333 14.5444C11.1416 14.8361 10.7459 15 10.3333 15ZM29 27.4444V16.5556C29 16.143 28.8361 15.7473 28.5444 15.4556C28.2527 15.1639 27.857 15 27.4444 15H19.6667C19.2541 15 18.8584 15.1639 18.5667 15.4556C18.275 15.7473 18.1111 16.143 18.1111 16.5556V27.4444C18.1111 27.857 18.275 28.2527 18.5667 28.5444C18.8584 28.8361 19.2541 29 19.6667 29H27.4444C27.857 29 28.2527 28.8361 28.5444 28.5444C28.8361 28.2527 29 27.857 29 27.4444Z" fill="#7A40F2"/>
<path fill-rule="evenodd" clip-rule="evenodd" d="M0.87868 0.87868C1.44129 0.31607 2.20435 0 3 0H10.5C11.2957 0 12.0587 0.316071 12.6213 0.87868C13.1839 1.44129 13.5 2.20435 13.5 3V13.5C13.5 14.2957 13.1839 15.0587 12.6213 15.6213C12.0587 16.1839 11.2957 16.5 10.5 16.5H3C2.20435 16.5 1.44129 16.1839 0.87868 15.6213C0.31607 15.0587 0 14.2956 0 13.5V3C0 2.20435 0.31607 1.44129 0.87868 0.87868ZM10.5 3H3V13.5H10.5V3ZM17.3787 0.87868C17.9413 0.31607 18.7044 0 19.5 0H27C27.7956 0 28.5587 0.316069 29.1213 0.87868C29.6839 1.44129 30 2.20435 30 3V7.5C30 8.29565 29.6839 9.05871 29.1213 9.62132C28.5587 10.1839 27.7956 10.5 27 10.5H19.5C18.7044 10.5 17.9413 10.1839 17.3787 9.62132C16.8161 9.05871 16.5 8.29565 16.5 7.5V3C16.5 2.20435 16.8161 1.44129 17.3787 0.87868ZM27 3H19.5V7.5H27L27 3ZM17.3787 14.3787C17.9413 13.8161 18.7044 13.5 19.5 13.5H27C27.7956 13.5 28.5587 13.8161 29.1213 14.3787C29.6839 14.9413 30 15.7043 30 16.5V27C30 27.7956 29.6839 28.5587 29.1213 29.1213C28.5587 29.6839 27.7956 30 27 30H19.5C18.7043 30 17.9413 29.6839 17.3787 29.1213C16.8161 28.5587 16.5 27.7956 16.5 27V16.5C16.5 15.7043 16.8161 14.9413 17.3787 14.3787ZM27 16.5L19.5 16.5V27H27L27 16.5ZM0.87868 20.3787C1.44129 19.8161 2.20435 19.5 3 19.5H10.5C11.2956 19.5 12.0587 19.8161 12.6213 20.3787C13.1839 20.9413 13.5 21.7044 13.5 22.5V27C13.5 27.7956 13.1839 28.5587 12.6213 29.1213C12.0587 29.6839 11.2957 30 10.5 30H3C2.20435 30 1.44129 29.6839 0.87868 29.1213C0.316069 28.5587 0 27.7956 0 27V22.5C0 21.7044 0.316069 20.9413 0.87868 20.3787ZM10.5 22.5L3 22.5V27H10.5V22.5Z" fill="currentColor"/>
</svg>
