<svg width="12" height="23" viewBox="0 0 12 23" fill="none" xmlns="http://www.w3.org/2000/svg">
<path fill-rule="evenodd" clip-rule="evenodd" d="M11.0531 6.46649C11.189 6.43145 11.3248 6.46649 11.4267 6.57161C11.5286 6.67674 11.5626 6.81691 11.4947 6.99211L5.7209 21.8498C5.68694 21.9899 5.55108 22.06 5.41523 22.06H5.31334C5.14352 22.025 5.04163 21.8498 5.0756 21.6745L6.84169 11.4424L1.40756 12.4586C1.30567 12.4586 1.16982 12.4236 1.10189 12.3535C1.03396 12.2484 1 12.1432 1 12.0381L2.35853 1.31537C2.3925 1.14017 2.52835 1 2.69817 1H7.92851C8.0304 1 8.13229 1.03504 8.20022 1.14017C8.26815 1.24529 8.26815 1.35042 8.23418 1.45554L5.75486 8.39378L11.0531 6.46649ZM7.58888 11.0219L6.33224 18.3806L10.5777 7.37757L5.31334 9.26982C5.21145 9.3399 5.0756 9.30486 4.97371 9.19973C4.90578 9.12965 4.87182 8.98948 4.90578 8.84932L7.45303 1.70083H3.00383L1.71323 11.6176L7.18132 10.6014H7.24925C7.35114 10.6014 7.41906 10.6364 7.48699 10.7065C7.58888 10.7766 7.62284 10.9168 7.58888 11.0219Z" fill="#7A40F2"/>
<path d="M11.0531 6.46649L11.0157 6.32124L11.0087 6.32305L11.0019 6.32553L11.0531 6.46649ZM11.4947 6.99211L11.6345 7.04645L11.6345 7.04633L11.4947 6.99211ZM5.7209 21.8498L5.58109 21.7954L5.57747 21.8047L5.57512 21.8144L5.7209 21.8498ZM5.31334 22.06L5.28303 22.2069L5.29802 22.21H5.31334V22.06ZM5.0756 21.6745L5.22289 21.7031L5.22341 21.7001L5.0756 21.6745ZM6.84169 11.4424L6.9895 11.4679L7.0262 11.2553L6.81412 11.295L6.84169 11.4424ZM1.40756 12.4586V12.6086H1.42146L1.43513 12.606L1.40756 12.4586ZM1.10189 12.3535L0.975902 12.4349L0.98391 12.4473L0.994179 12.4579L1.10189 12.3535ZM1 12.0381L0.85119 12.0192L0.85 12.0286V12.0381H1ZM2.35853 1.31537L2.21096 1.28677L2.20972 1.29652L2.35853 1.31537ZM8.20022 1.14017L8.07423 1.22157V1.22157L8.20022 1.14017ZM8.23418 1.45554L8.3755 1.50604L8.37692 1.50166L8.23418 1.45554ZM5.75486 8.39378L5.61361 8.3433L5.50622 8.64384L5.80614 8.53474L5.75486 8.39378ZM6.33224 18.3806L6.18438 18.3554L6.47218 18.4346L6.33224 18.3806ZM7.58888 11.0219L7.44615 10.9758L7.44283 10.986L7.44102 10.9966L7.58888 11.0219ZM10.5777 7.37757L10.7176 7.43157L10.8357 7.12541L10.5269 7.23641L10.5777 7.37757ZM5.31334 9.26982L5.2626 9.12866L5.24433 9.13523L5.22833 9.14623L5.31334 9.26982ZM4.97371 9.19973L5.08142 9.09534H5.08142L4.97371 9.19973ZM4.90578 8.84932L4.76448 8.79897L4.76185 8.80636L4.76 8.81399L4.90578 8.84932ZM7.45303 1.70083L7.59432 1.75118L7.66572 1.55083H7.45303V1.70083ZM3.00383 1.70083V1.55083H2.87209L2.85509 1.68147L3.00383 1.70083ZM1.71323 11.6176L1.56448 11.5982L1.53787 11.8028L1.74064 11.7651L1.71323 11.6176ZM7.18132 10.6014V10.4514H7.1675L7.15391 10.4539L7.18132 10.6014ZM7.48699 10.7065L7.37928 10.8109L7.38968 10.8216L7.40198 10.8301L7.48699 10.7065ZM11.5344 6.46722C11.3941 6.32241 11.2024 6.27307 11.0157 6.32124L11.0906 6.61174C11.1755 6.58983 11.2556 6.61057 11.319 6.67601L11.5344 6.46722ZM11.6345 7.04633C11.6765 6.93811 11.6905 6.83104 11.672 6.72876C11.6533 6.62591 11.6034 6.53839 11.5344 6.46722L11.319 6.67601C11.3519 6.70996 11.37 6.74509 11.3768 6.7824C11.3837 6.82029 11.3808 6.8709 11.3548 6.93789L11.6345 7.04633ZM5.86071 21.9041L11.6345 7.04645L11.3548 6.93778L5.58109 21.7954L5.86071 21.9041ZM5.41523 22.21C5.59306 22.21 5.81077 22.1158 5.86668 21.8851L5.57512 21.8144C5.5631 21.864 5.50911 21.91 5.41523 21.91V22.21ZM5.31334 22.21H5.41523V21.91H5.31334V22.21ZM4.92834 21.646C4.88111 21.8896 5.02112 22.1529 5.28303 22.2069L5.34365 21.9131C5.26593 21.8971 5.20216 21.8099 5.22286 21.7031L4.92834 21.646ZM6.69387 11.4169L4.92778 21.649L5.22341 21.7001L6.9895 11.4679L6.69387 11.4169ZM1.43513 12.606L6.86926 11.5898L6.81412 11.295L1.37999 12.3112L1.43513 12.606ZM0.994179 12.4579C1.052 12.5175 1.12884 12.5538 1.1966 12.5753C1.26632 12.5974 1.34105 12.6086 1.40756 12.6086V12.3086C1.37218 12.3086 1.32804 12.3023 1.28738 12.2894C1.24475 12.2758 1.2197 12.2595 1.2096 12.2491L0.994179 12.4579ZM0.85 12.0381C0.85 12.1772 0.895331 12.3102 0.975902 12.4349L1.22788 12.2721C1.1726 12.1865 1.15 12.1092 1.15 12.0381H0.85ZM2.20972 1.29652L0.85119 12.0192L1.14881 12.057L2.50734 1.33423L2.20972 1.29652ZM2.69817 0.85C2.43813 0.85 2.25508 1.06085 2.21127 1.28683L2.50579 1.34392C2.52991 1.21949 2.61857 1.15 2.69817 1.15V0.85ZM7.92851 0.85H2.69817V1.15H7.92851V0.85ZM8.32621 1.05876C8.22364 0.900025 8.0669 0.85 7.92851 0.85V1.15C7.99391 1.15 8.04095 1.17006 8.07423 1.22157L8.32621 1.05876ZM8.37692 1.50166C8.42115 1.36475 8.42427 1.21052 8.32621 1.05876L8.07423 1.22157C8.11202 1.28006 8.11514 1.33609 8.09145 1.40943L8.37692 1.50166ZM5.89611 8.44425L8.37544 1.50602L8.09293 1.40507L5.61361 8.3433L5.89611 8.44425ZM11.0019 6.32553L5.70359 8.25281L5.80614 8.53474L11.1044 6.60745L11.0019 6.32553ZM6.4801 18.4059L7.73674 11.0471L7.44102 10.9966L6.18438 18.3554L6.4801 18.4059ZM10.4377 7.32357L6.19229 18.3266L6.47218 18.4346L10.7176 7.43157L10.4377 7.32357ZM5.36408 9.41098L10.6284 7.51873L10.5269 7.23641L5.2626 9.12866L5.36408 9.41098ZM4.866 9.30413C4.99581 9.43806 5.21245 9.52127 5.39835 9.3934L5.22833 9.14623C5.21554 9.15503 5.19957 9.15925 5.1759 9.15402C5.15012 9.14831 5.11577 9.13078 5.08142 9.09534L4.866 9.30413ZM4.76 8.81399C4.71739 8.98984 4.75306 9.18761 4.866 9.30413L5.08142 9.09534C5.07214 9.08577 5.05697 9.06158 5.0484 9.0203C5.04015 8.98056 5.03985 8.93297 5.05156 8.88464L4.76 8.81399ZM7.31173 1.65048L4.76448 8.79897L5.04708 8.89967L7.59432 1.75118L7.31173 1.65048ZM3.00383 1.85083H7.45303V1.55083H3.00383V1.85083ZM1.86197 11.637L3.15258 1.72019L2.85509 1.68147L1.56448 11.5982L1.86197 11.637ZM7.15391 10.4539L1.68582 11.4701L1.74064 11.7651L7.20873 10.7489L7.15391 10.4539ZM7.24925 10.4514H7.18132V10.7514H7.24925V10.4514ZM7.5947 10.6021C7.55209 10.5582 7.50333 10.5188 7.44338 10.4913C7.38263 10.4635 7.31831 10.4514 7.24925 10.4514V10.7514C7.28208 10.7514 7.30266 10.7568 7.31833 10.764C7.3348 10.7716 7.35397 10.7848 7.37928 10.8109L7.5947 10.6021ZM7.73162 11.068C7.78298 10.909 7.73615 10.6958 7.572 10.5829L7.40198 10.8301C7.44161 10.8574 7.46271 10.9245 7.44615 10.9758L7.73162 11.068Z" fill="#7A40F2"/>
</svg>
