<svg width="19" height="29" viewBox="0 0 19 29" fill="none" xmlns="http://www.w3.org/2000/svg">
<path fill-rule="evenodd" clip-rule="evenodd" d="M1.36279 11.8764H17.8623C18.0655 11.8764 18.2251 11.7167 18.2251 11.5136V2.75589C18.2251 1.79088 17.4342 1 16.4692 1H2.75589C1.79088 1 1 1.79088 1 2.75589V11.5136C1 11.7167 1.15963 11.8764 1.36279 11.8764ZM17.4995 11.1508H1.72557V2.75589C1.72557 2.18994 2.18994 1.72557 2.75589 1.72557H16.4692C17.0352 1.72557 17.4995 2.18994 17.4995 2.75589V11.1508Z" fill="currentColor"/>
<path d="M1.72557 11.1508H1.37821V11.4981H1.72557V11.1508ZM17.4995 11.1508V11.4981H17.8469V11.1508H17.4995ZM17.8623 11.529H1.36279V12.2237H17.8623V11.529ZM17.8778 11.5136C17.8778 11.5185 17.8769 11.5212 17.8764 11.5224C17.8758 11.5237 17.8751 11.5247 17.8743 11.5255C17.8735 11.5263 17.8725 11.527 17.8711 11.5276C17.8699 11.5281 17.8673 11.529 17.8623 11.529V12.2237C18.2573 12.2237 18.5725 11.9086 18.5725 11.5136H17.8778ZM17.8778 2.75589V11.5136H18.5725V2.75589H17.8778ZM16.4692 1.34737C17.2424 1.34737 17.8778 1.98272 17.8778 2.75589H18.5725C18.5725 1.59903 17.6261 0.652632 16.4692 0.652632V1.34737ZM2.75589 1.34737H16.4692V0.652632H2.75589V1.34737ZM1.34737 2.75589C1.34737 1.98272 1.98272 1.34737 2.75589 1.34737V0.652632C1.59903 0.652632 0.652632 1.59903 0.652632 2.75589H1.34737ZM1.34737 11.5136V2.75589H0.652632V11.5136H1.34737ZM1.36279 11.529C1.35786 11.529 1.3552 11.5281 1.354 11.5276C1.35261 11.527 1.35161 11.5263 1.35084 11.5255C1.35006 11.5247 1.34934 11.5237 1.34876 11.5224C1.34826 11.5212 1.34737 11.5185 1.34737 11.5136H0.652632C0.652632 11.9086 0.967779 12.2237 1.36279 12.2237V11.529ZM1.72557 11.4981H17.4995V10.8034H1.72557V11.4981ZM1.37821 2.75589V11.1508H2.07294V2.75589H1.37821ZM2.75589 1.37821C1.99809 1.37821 1.37821 1.99809 1.37821 2.75589H2.07294C2.07294 2.38179 2.38179 2.07294 2.75589 2.07294V1.37821ZM16.4692 1.37821H2.75589V2.07294H16.4692V1.37821ZM17.8469 2.75589C17.8469 1.99809 17.227 1.37821 16.4692 1.37821V2.07294C16.8433 2.07294 17.1522 2.38179 17.1522 2.75589H17.8469ZM17.8469 11.1508V2.75589H17.1522V11.1508H17.8469Z" fill="currentColor"/>
<path fill-rule="evenodd" clip-rule="evenodd" d="M1.36279 11H17.8623C18.0655 11 18.2251 11.1596 18.2251 11.3628V26.8683C18.2251 27.8333 17.4342 28.6242 16.4692 28.6242H2.75589C1.79088 28.6242 1 27.8333 1 26.8683V11.3628C1 11.1596 1.15963 11 1.36279 11ZM17.4995 11.7256H1.72557V26.8683C1.72557 27.4342 2.18994 27.8986 2.75589 27.8986H16.4692C17.0352 27.8986 17.4995 27.4342 17.4995 26.8683V11.7256Z" fill="currentColor"/>
<path d="M1.72557 11.7256H1.37821V11.3782H1.72557V11.7256ZM17.4995 11.7256V11.3782H17.8469V11.7256H17.4995ZM17.8623 11.3474H1.36279V10.6526H17.8623V11.3474ZM17.8778 11.3628C17.8778 11.3578 17.8769 11.3552 17.8764 11.354C17.8758 11.3526 17.8751 11.3516 17.8743 11.3508C17.8735 11.3501 17.8725 11.3493 17.8711 11.3488C17.8699 11.3483 17.8673 11.3474 17.8623 11.3474V10.6526C18.2573 10.6526 18.5725 10.9678 18.5725 11.3628H17.8778ZM17.8778 26.8683V11.3628H18.5725V26.8683H17.8778ZM16.4692 28.2768C17.2424 28.2768 17.8778 27.6415 17.8778 26.8683H18.5725C18.5725 28.0251 17.6261 28.9715 16.4692 28.9715V28.2768ZM2.75589 28.2768H16.4692V28.9715H2.75589V28.2768ZM1.34737 26.8683C1.34737 27.6415 1.98272 28.2768 2.75589 28.2768V28.9715C1.59903 28.9715 0.652632 28.0251 0.652632 26.8683H1.34737ZM1.34737 11.3628V26.8683H0.652632V11.3628H1.34737ZM1.36279 11.3474C1.35786 11.3474 1.3552 11.3483 1.354 11.3488C1.35261 11.3493 1.35161 11.3501 1.35083 11.3508C1.35006 11.3516 1.34934 11.3526 1.34876 11.354C1.34826 11.3552 1.34737 11.3578 1.34737 11.3628H0.652632C0.652632 10.9678 0.96778 10.6526 1.36279 10.6526V11.3474ZM1.72557 11.3782H17.4995V12.0729H1.72557V11.3782ZM1.37821 26.8683V11.7256H2.07294V26.8683H1.37821ZM2.75589 28.246C1.99809 28.246 1.37821 27.6261 1.37821 26.8683H2.07294C2.07294 27.2424 2.38179 27.5512 2.75589 27.5512V28.246ZM16.4692 28.246H2.75589V27.5512H16.4692V28.246ZM17.8469 26.8683C17.8469 27.6261 17.227 28.246 16.4692 28.246V27.5512C16.8433 27.5512 17.1522 27.2424 17.1522 26.8683H17.8469ZM17.8469 11.7256V26.8683H17.1522V11.7256H17.8469Z" fill="currentColor"/>
<path d="M4.67135 8.80727H4.46819C3.96754 8.80727 3.56122 8.40095 3.56122 7.9003V5.76778C3.56122 5.26713 3.96754 4.86081 4.46819 4.86081H4.67135C5.17199 4.86081 5.57831 5.26713 5.57831 5.76778V7.9003C5.57831 8.40095 5.17199 8.80727 4.67135 8.80727Z" fill="currentColor"/>
<path d="M4.67135 19.4158H4.46819C3.96754 19.4158 3.56122 19.0095 3.56122 18.5088V14.9905C3.56122 14.4898 3.96754 14.0835 4.46819 14.0835H4.67135C5.17199 14.0835 5.57831 14.4898 5.57831 14.9905V18.5088C5.57831 19.0095 5.17199 19.4158 4.67135 19.4158Z" fill="currentColor"/>
</svg>
