<svg width="25" height="25" viewBox="0 0 25 25" fill="none" xmlns="http://www.w3.org/2000/svg">
<path d="M14.4226 0.878732L14.3279 0.5H13.9375H11.0625H10.6721L10.5774 0.878732L9.8561 3.76404C9.27503 3.93968 8.71849 4.17166 8.19286 4.45358L5.642 2.92306L5.30724 2.72221L5.0312 2.99825L2.99827 5.03118L2.72222 5.30723L2.92308 5.64198L4.45359 8.19284C4.17167 8.71847 3.93968 9.27501 3.76404 9.8561L0.878732 10.5774L0.5 10.6721V11.0625V13.9375V14.3279L0.878732 14.4226L3.76404 15.1439C3.93968 15.725 4.17166 16.2815 4.45359 16.8071L2.92308 19.3579L2.72223 19.6927L2.99826 19.9687L5.03118 22.0018L5.30724 22.2779L5.64201 22.077L8.19285 20.5464C8.71845 20.8283 9.27499 21.0603 9.85611 21.236L10.5774 24.1213L10.6721 24.5H11.0625H13.9375H14.3279L14.4226 24.1213L15.1439 21.236C15.725 21.0603 16.2815 20.8283 16.8071 20.5464L19.3581 22.077L19.6929 22.2779L19.9689 22.0018L22.0018 19.9687L22.2779 19.6927L22.077 19.3579L20.5464 16.8071C20.8283 16.2815 21.0603 15.725 21.236 15.1439L24.1213 14.4226L24.5 14.3279V13.9375V11.0625V10.6721L24.1213 10.5774L21.236 9.85611C21.0603 9.275 20.8283 8.71846 20.5464 8.19286L22.077 5.64199L22.2779 5.30724L22.0018 5.03118L19.9689 2.99824L19.6929 2.7222L19.3581 2.92304L16.8071 4.45358C16.2815 4.17166 15.725 3.93968 15.1439 3.76404L14.4226 0.878732ZM14.875 12.5C14.875 13.8117 13.8117 14.875 12.5 14.875C11.1883 14.875 10.125 13.8117 10.125 12.5C10.125 11.1883 11.1883 10.125 12.5 10.125C13.8117 10.125 14.875 11.1883 14.875 12.5Z" fill="none" stroke="black"/>
</svg>
