<svg width="30" height="30" viewBox="0 0 30 30" fill="none" xmlns="http://www.w3.org/2000/svg">
<g clip-path="url(#clip0_420_57)">
<path d="M3 26.9494V10.3722L15 3.05067L27 10.3722V26.9494H21V22.7547C21 21.1366 20.3679 19.5847 19.2426 18.4405C18.1174 17.2963 16.5913 16.6535 15 16.6535C13.4087 16.6535 11.8826 17.2963 10.7574 18.4405C9.63214 19.5847 9 21.1366 9 22.7547V26.9494H3ZM12 30V22.7547C12 21.9457 12.3161 21.1697 12.8787 20.5976C13.4413 20.0255 14.2044 19.7041 15 19.7041C15.7956 19.7041 16.5587 20.0255 17.1213 20.5976C17.6839 21.1697 18 21.9457 18 22.7547V30H27C27.7956 30 28.5587 29.6786 29.1213 29.1065C29.6839 28.5344 30 27.7584 30 26.9494V10.3722C30 9.84539 29.8659 9.32757 29.6106 8.86914C29.3554 8.41072 28.9877 8.02732 28.5435 7.75628L16.5435 0.434745C16.0773 0.150271 15.5437 0 15 0C14.4563 0 13.9227 0.150271 13.4565 0.434745L1.4565 7.75628C1.01227 8.02732 0.644632 8.41072 0.389388 8.86914C0.134145 9.32757 -4.98425e-06 9.84539 0 10.3722V26.9494C0 27.7584 0.316071 28.5344 0.87868 29.1065C1.44129 29.6786 2.20435 30 3 30H12Z" fill="currentColor"/>
</g>
<defs>
<clipPath id="clip0_420_57">
<rect width="30" height="30" fill="white"/>
</clipPath>
</defs>
</svg>
