<svg width="30" height="30" viewBox="0 0 30 30" fill="none" xmlns="http://www.w3.org/2000/svg">
<path fill-rule="evenodd" clip-rule="evenodd" d="M6.81802 0.923864C7.53078 0.375084 8.43881 0 9.38235 0H20.6093C21.5532 0 22.4613 0.375348 23.1758 0.92592C23.8908 1.47696 24.4896 2.26339 24.7429 3.18543L24.7439 3.1892L27.8237 14.5634L27.8246 14.5671C28.1992 15.9702 27.9689 17.3436 27.1807 18.3803C26.3923 19.4174 25.1351 20 23.689 20H6.30264C4.85678 20 3.59814 19.4175 2.81099 18.3764C2.02397 17.3354 1.79983 15.9572 2.18216 14.5487L5.26073 3.17872C5.26091 3.17806 5.26108 3.1774 5.26126 3.17675C5.50749 2.25658 6.10568 1.47232 6.81802 0.923864ZM8.09354 2.60327C7.67599 2.92476 7.39261 3.33779 7.28855 3.72756L7.28758 3.73117L4.20769 15.106C3.97408 15.9667 4.1419 16.6463 4.48178 17.0958C4.82152 17.5452 5.42471 17.8858 6.30264 17.8858H23.689C24.5667 17.8858 25.1713 17.5452 25.5133 17.0953C25.8553 16.6455 26.024 15.9688 25.7973 15.1177C25.7971 15.1171 25.797 15.1164 25.7968 15.1158L22.7191 3.74903C22.7189 3.74849 22.7188 3.74795 22.7187 3.74741C22.6077 3.34508 22.3178 2.92711 21.8995 2.60474C21.48 2.28145 21.0093 2.11417 20.6093 2.11417H9.38235C8.98202 2.11417 8.51118 2.28172 8.09354 2.60327Z" fill="currentColor"/>
<path fill-rule="evenodd" clip-rule="evenodd" d="M15 18C15.5523 18 16 18.4741 16 19.0588V28.9412C16 29.5259 15.5523 30 15 30C14.4477 30 14 29.5259 14 28.9412V19.0588C14 18.4741 14.4477 18 15 18Z" fill="currentColor"/>
<path fill-rule="evenodd" clip-rule="evenodd" d="M8 29C8 28.4477 8.49484 28 9.10526 28H20.8947C21.5052 28 22 28.4477 22 29C22 29.5523 21.5052 30 20.8947 30H9.10526C8.49484 30 8 29.5523 8 29Z" fill="currentColor"/>
</svg>
