<svg width="25" height="27" viewBox="0 0 25 27" fill="none" xmlns="http://www.w3.org/2000/svg">
<path fill-rule="evenodd" clip-rule="evenodd" d="M1.31758 13.3155C1.70407 13.9485 2.38593 14.3336 3.11997 14.3335H11.6969V24.3334H7.24402C6.78379 24.3334 6.4107 24.7064 6.4107 25.1667C6.4107 25.6269 6.78379 26 7.24402 26H17.7928C18.253 26 18.6261 25.6269 18.6261 25.1667C18.6261 24.7064 18.253 24.3334 17.7928 24.3334H13.3399V14.3335H21.9168C22.6459 14.3208 23.3174 13.9288 23.6945 13.2958C24.0716 12.6627 24.1015 11.8775 23.7735 11.2168L19.6658 2.80862C19.122 1.69853 18.0043 0.997612 16.7822 1.00031H8.2546C7.01592 0.983154 5.87791 1.69002 5.32992 2.81695L1.22221 11.2252C0.895019 11.8917 0.9311 12.6825 1.31758 13.3155ZM6.83334 3.55861C7.1002 3.01033 7.6518 2.66428 8.2546 2.66695H16.7822C17.3968 2.65133 17.9643 2.99934 18.2363 3.55861L22.344 11.9668C22.4182 12.1169 22.4103 12.2952 22.3232 12.4379C22.2362 12.5806 22.0823 12.6673 21.9168 12.6668H3.08711C2.92164 12.6673 2.76779 12.5806 2.6807 12.4379C2.5936 12.2952 2.58573 12.1169 2.65991 11.9668L6.83334 3.55861Z" fill="currentColor"/>
<path d="M3.11997 14.3335V14.2335H3.11995L3.11997 14.3335ZM1.31758 13.3155L1.40293 13.2634L1.31758 13.3155ZM11.6969 14.3335H11.7969V14.2335H11.6969V14.3335ZM11.6969 24.3334V24.4334H11.7969V24.3334H11.6969ZM13.3399 24.3334H13.2399V24.4334H13.3399V24.3334ZM13.3399 14.3335V14.2335H13.2399V14.3335H13.3399ZM21.9168 14.3335V14.4335L21.9186 14.4335L21.9168 14.3335ZM23.7735 11.2168L23.6837 11.2607L23.684 11.2613L23.7735 11.2168ZM19.6658 2.80862L19.7557 2.76472L19.7556 2.76462L19.6658 2.80862ZM16.7822 1.00031V1.10031L16.7824 1.1003L16.7822 1.00031ZM8.2546 1.00031L8.25322 1.10031H8.2546V1.00031ZM5.32992 2.81695L5.41977 2.86085L5.41985 2.86068L5.32992 2.81695ZM1.22221 11.2252L1.31198 11.2692L1.31206 11.2691L1.22221 11.2252ZM8.2546 2.66695L8.25416 2.76695H8.2546V2.66695ZM6.83334 3.55861L6.92291 3.60307L6.92325 3.60237L6.83334 3.55861ZM16.7822 2.66695V2.76698L16.7847 2.76692L16.7822 2.66695ZM18.2363 3.55861L18.1464 3.60234L18.1465 3.6025L18.2363 3.55861ZM22.344 11.9668L22.2542 12.0107L22.2544 12.0112L22.344 11.9668ZM21.9168 12.6668L21.9171 12.5668H21.9168V12.6668ZM3.08711 12.6668V12.5668L3.08684 12.5668L3.08711 12.6668ZM2.6807 12.4379L2.76605 12.3858L2.6807 12.4379ZM2.65991 11.9668L2.57033 11.9224L2.57026 11.9225L2.65991 11.9668ZM3.11995 14.2335C2.42121 14.2336 1.77148 13.867 1.40293 13.2634L1.23223 13.3676C1.63665 14.03 2.35064 14.4336 3.11999 14.4335L3.11995 14.2335ZM11.6969 14.2335H3.11997V14.4335H11.6969V14.2335ZM11.7969 24.3334V14.3335H11.5969V24.3334H11.7969ZM7.24402 24.4334H11.6969V24.2334H7.24402V24.4334ZM6.5107 25.1667C6.5107 24.7617 6.83902 24.4334 7.24402 24.4334V24.2334C6.72856 24.2334 6.3107 24.6512 6.3107 25.1667H6.5107ZM7.24402 25.9C6.83902 25.9 6.5107 25.5717 6.5107 25.1667H6.3107C6.3107 25.6821 6.72856 26.1 7.24402 26.1V25.9ZM17.7928 25.9H7.24402V26.1H17.7928V25.9ZM18.5261 25.1667C18.5261 25.5717 18.1978 25.9 17.7928 25.9V26.1C18.3082 26.1 18.7261 25.6821 18.7261 25.1667H18.5261ZM17.7928 24.4334C18.1978 24.4334 18.5261 24.7617 18.5261 25.1667H18.7261C18.7261 24.6512 18.3083 24.2334 17.7928 24.2334V24.4334ZM13.3399 24.4334H17.7928V24.2334H13.3399V24.4334ZM13.2399 14.3335V24.3334H13.4399V14.3335H13.2399ZM21.9168 14.2335H13.3399V14.4335H21.9168V14.2335ZM23.6086 13.2446C23.249 13.8483 22.6091 14.2214 21.9151 14.2335L21.9186 14.4335C22.6827 14.4201 23.3858 14.0093 23.7804 13.3469L23.6086 13.2446ZM23.684 11.2613C23.9968 11.8915 23.9683 12.6407 23.6086 13.2446L23.7804 13.3469C24.175 12.6847 24.2061 11.8634 23.8631 11.1724L23.684 11.2613ZM19.576 2.85251L23.6837 11.2607L23.8634 11.173L19.7557 2.76472L19.576 2.85251ZM16.7824 1.1003C17.9657 1.0977 19.0488 1.77637 19.576 2.85261L19.7556 2.76462C19.1952 1.62069 18.0429 0.897527 16.782 0.900305L16.7824 1.1003ZM8.2546 1.10031H16.7822V0.900305H8.2546V1.10031ZM5.41985 2.86068C5.95114 1.7681 7.05389 1.08369 8.25322 1.1003L8.25599 0.900315C6.97796 0.882619 5.80469 1.61194 5.23999 2.77322L5.41985 2.86068ZM1.31206 11.2691L5.41977 2.86084L5.24007 2.77305L1.13236 11.1813L1.31206 11.2691ZM1.40293 13.2634C1.0343 12.6596 0.999839 11.9051 1.31198 11.2692L1.13244 11.1811C0.7902 11.8783 0.827902 12.7054 1.23223 13.3676L1.40293 13.2634ZM8.25505 2.56695C7.61325 2.56411 7.02685 2.93253 6.74342 3.51484L6.92325 3.60237C7.17355 3.08813 7.69034 2.76445 8.25416 2.76695L8.25505 2.56695ZM16.7822 2.56695H8.2546V2.76695H16.7822V2.56695ZM18.3263 3.51487C18.0374 2.92089 17.434 2.55035 16.7797 2.56698L16.7847 2.76692C17.3596 2.75231 17.8913 3.07779 18.1464 3.60234L18.3263 3.51487ZM22.4339 11.9229L18.3262 3.51471L18.1465 3.6025L22.2542 12.0107L22.4339 11.9229ZM22.4086 12.49C22.5136 12.318 22.523 12.1033 22.4337 11.9225L22.2544 12.0112C22.3134 12.1305 22.3071 12.2724 22.2379 12.3858L22.4086 12.49ZM21.9166 12.7668C22.1174 12.7674 22.3035 12.6622 22.4086 12.49L22.2379 12.3858C22.1688 12.4991 22.0472 12.5672 21.9171 12.5668L21.9166 12.7668ZM3.08711 12.7668H21.9168V12.5668H3.08711V12.7668ZM2.59534 12.49C2.70041 12.6622 2.88651 12.7674 3.08738 12.7668L3.08684 12.5668C2.95677 12.5672 2.83517 12.4991 2.76605 12.3858L2.59534 12.49ZM2.57026 11.9225C2.48091 12.1033 2.49035 12.318 2.59534 12.49L2.76605 12.3858C2.69685 12.2724 2.69055 12.1305 2.74955 12.0112L2.57026 11.9225ZM6.74376 3.51415L2.57033 11.9224L2.74948 12.0113L6.92291 3.60307L6.74376 3.51415Z" fill="currentColor"/>
</svg>
