<svg width="23" height="27" viewBox="0 0 23 27" fill="none" xmlns="http://www.w3.org/2000/svg">
<path fill-rule="evenodd" clip-rule="evenodd" d="M12.0273 3.12955C12.0273 3.46705 11.7511 3.74318 11.4136 3.74318C11.0761 3.74318 10.8 3.46705 10.8 3.09886V0.859091C10.8 0.521591 11.0761 0.245455 11.4136 0.245455C11.7511 0.245455 12.0273 0.521591 12.0273 0.859091V3.12955ZM7.21023 18.3784C7.33295 18.5625 7.51705 18.6545 7.73182 18.6545H15.0955C15.3102 18.6545 15.4943 18.5625 15.617 18.3784C16.9364 16.4148 17.8261 13.6227 17.8261 11.475C17.8261 7.60909 14.942 4.44886 11.4136 4.44886C7.88523 4.44886 5.00114 7.60909 5.00114 11.475C5.00114 13.6227 5.89091 16.4148 7.21023 18.3784ZM11.4136 5.67614C14.267 5.67614 16.5989 8.28409 16.5989 11.475C16.5989 13.3159 15.8625 15.6477 14.758 17.4273H8.06932C6.96477 15.6477 6.22841 13.3159 6.22841 11.475C6.22841 8.28409 8.52954 5.67614 11.4136 5.67614ZM15.433 20.925V20.833C15.433 19.9125 14.6659 19.1455 13.7455 19.1455H9.05114C8.13068 19.1455 7.36364 19.9125 7.36364 20.833V20.925C7.36364 21.8455 8.13068 22.6125 9.05114 22.6125H13.7455C14.6966 22.6125 15.433 21.8455 15.433 20.925ZM14.2057 20.925C14.2057 21.1705 13.9909 21.3852 13.7455 21.3852H9.05114C8.80568 21.3852 8.59091 21.1705 8.59091 20.925V20.833C8.59091 20.5875 8.80568 20.3727 9.05114 20.3727H13.7455C13.9909 20.3727 14.2057 20.5875 14.2057 20.833V20.925ZM10.3705 23.2568H12.4261C13.3466 23.2568 14.1136 24.0239 14.1136 24.9443V25.0364C14.1136 25.9568 13.3466 26.7239 12.4261 26.7239H10.3705C9.45 26.7239 8.68295 25.9568 8.68295 25.0364V24.9443C8.68295 24.0239 9.45 23.2568 10.3705 23.2568ZM12.4261 25.5273C12.6716 25.5273 12.8864 25.3125 12.8864 25.067V24.975C12.8864 24.7295 12.6716 24.5148 12.4261 24.5148H10.3705C10.125 24.5148 9.91023 24.7295 9.91023 24.975V25.067C9.91023 25.3125 10.125 25.5273 10.3705 25.5273H12.4261ZM17.3659 6.22841C17.5193 6.22841 17.6727 6.16705 17.7955 6.04432L19.3909 4.44886C19.6364 4.20341 19.6364 3.83523 19.3909 3.58977C19.1455 3.34432 18.7773 3.34432 18.5318 3.58977L16.9364 5.18523C16.6909 5.43068 16.6909 5.79886 16.9364 6.04432C17.0284 6.16705 17.2125 6.22841 17.3659 6.22841ZM19.7898 12.2114C19.4523 12.2114 19.1761 11.9352 19.1761 11.5977C19.1761 11.2602 19.4523 10.9841 19.7898 10.9841H22.0295C22.367 10.9841 22.6432 11.2602 22.6432 11.5977C22.6432 11.9352 22.367 12.2114 22.0295 12.2114H19.7898ZM18.8693 19.7591C19.0227 19.7591 19.1761 19.6977 19.2989 19.575C19.5443 19.3295 19.5443 18.9614 19.2989 18.7159L17.7034 17.1205C17.458 16.875 17.0898 16.875 16.8443 17.1205C16.5989 17.3659 16.5989 17.7341 16.8443 17.9795L18.4398 19.575C18.5625 19.6977 18.7159 19.7591 18.8693 19.7591ZM5.79886 17.0591C6.04432 17.3045 6.04432 17.6727 5.79886 17.9182L4.20341 19.5136C4.08068 19.6364 3.92727 19.6977 3.77386 19.6977C3.62045 19.6977 3.46705 19.6364 3.34432 19.5136C3.09886 19.2682 3.09886 18.9 3.34432 18.6545L4.93977 17.0591C5.18523 16.8136 5.55341 16.8136 5.79886 17.0591ZM0.675 12.1193H2.91477C3.25227 12.1193 3.52841 11.8432 3.52841 11.5057C3.52841 11.1682 3.25227 10.892 2.91477 10.892H0.675C0.3375 10.892 0.0613632 11.1682 0.0613632 11.5057C0.0613632 11.8432 0.3375 12.1193 0.675 12.1193ZM5.43068 6.16705C5.27727 6.16705 5.12386 6.10568 5.00114 5.98295L3.40568 4.3875C3.16023 4.14205 3.16023 3.77386 3.40568 3.52841C3.65114 3.28295 4.01932 3.28295 4.26477 3.52841L5.86023 5.12386C6.10568 5.36932 6.10568 5.7375 5.86023 5.98295C5.7375 6.10568 5.58409 6.16705 5.43068 6.16705Z" fill="currentColor"/>
</svg>
