<svg width="30" height="30" viewBox="0 0 30 30" fill="none" xmlns="http://www.w3.org/2000/svg">
<path d="M23.9091 11.7857C23.9091 9.22827 22.9178 6.77557 21.1532 4.96718C19.3887 3.1588 16.9954 2.14286 14.5 2.14286C12.0046 2.14286 9.61131 3.1588 7.84677 4.96718C6.08222 6.77557 5.09091 9.22827 5.09091 11.7857C5.09091 15.7414 8.17918 20.8971 14.5 27.0729C20.8208 20.8971 23.9091 15.7414 23.9091 11.7857ZM14.5 30C6.83264 22.8579 3 16.785 3 11.7857C3 8.65995 4.2116 5.66221 6.36827 3.45196C8.52494 1.24171 11.45 0 14.5 0C17.55 0 20.4751 1.24171 22.6317 3.45196C24.7884 5.66221 26 8.65995 26 11.7857C26 16.785 22.1674 22.8579 14.5 30Z" fill="currentColor"/>
<path d="M15 15.8C15.7956 15.8 16.5587 15.4523 17.1213 14.8335C17.6839 14.2146 18 13.3752 18 12.5C18 11.6248 17.6839 10.7854 17.1213 10.1665C16.5587 9.54768 15.7956 9.2 15 9.2C14.2044 9.2 13.4413 9.54768 12.8787 10.1665C12.3161 10.7854 12 11.6248 12 12.5C12 13.3752 12.3161 14.2146 12.8787 14.8335C13.4413 15.4523 14.2044 15.8 15 15.8ZM15 18C13.6739 18 12.4021 17.4205 11.4645 16.3891C10.5268 15.3576 10 13.9587 10 12.5C10 11.0413 10.5268 9.64236 11.4645 8.61091C12.4021 7.57946 13.6739 7 15 7C16.3261 7 17.5979 7.57946 18.5355 8.61091C19.4732 9.64236 20 11.0413 20 12.5C20 13.9587 19.4732 15.3576 18.5355 16.3891C17.5979 17.4205 16.3261 18 15 18Z" fill="currentColor"/>
</svg>
