<svg width="27" height="26" viewBox="0 0 27 26" fill="none" xmlns="http://www.w3.org/2000/svg">
<path fill-rule="evenodd" clip-rule="evenodd" d="M4.68361 3.86618C7.13934 1.41044 10.3658 0.182507 13.5888 0.182495C16.8118 0.182484 20.0383 1.41044 22.494 3.86618C27.4055 8.77766 27.4055 16.7562 22.494 21.6677C17.5825 26.5791 9.59509 26.5791 4.68361 21.6677C-0.227874 16.7562 -0.227865 8.77765 4.68361 3.86618ZM21.6804 4.67086C19.4433 2.4338 16.5165 1.31799 13.5888 1.318C10.6611 1.31801 7.7343 2.4338 5.49724 4.67086C1.02311 9.14499 1.0231 16.3888 5.49724 20.863C9.97137 25.3371 17.2063 25.3371 21.6804 20.863C26.1545 16.3889 26.1545 9.14499 21.6804 4.67086ZM13.5888 3.97347C13.4387 3.97359 13.2916 3.9749 13.1418 3.98241C13.1209 3.98127 13.1 3.98127 13.0792 3.98241C12.8747 4.00314 12.6969 4.13139 12.6126 4.31883C12.5284 4.50627 12.5505 4.72443 12.6707 4.8911C12.7909 5.05778 12.991 5.14765 13.1954 5.12685C15.2935 5.02172 17.4183 5.73763 19.016 7.33527C20.6137 8.93294 21.3296 11.0578 21.2244 13.1558C21.2096 13.4719 21.4538 13.7401 21.7698 13.7549C22.0858 13.7697 22.354 13.5255 22.3689 13.2095C22.4891 10.8115 21.6658 8.35781 19.8296 6.52164C18.1082 4.80026 15.841 3.97163 13.5888 3.97347ZM10.5847 9.75828C11.4129 8.93005 12.499 8.51548 13.5888 8.51548C14.6787 8.51548 15.7648 8.93005 16.593 9.75828C18.2494 11.4147 18.2494 14.1191 16.593 15.7756C14.9365 17.432 12.2411 17.432 10.5847 15.7756C8.92819 14.1191 8.9282 11.4147 10.5847 9.75828ZM13.5888 9.65098C14.3834 9.65098 15.1787 9.96235 15.7883 10.5719C17.0074 11.791 17.0074 13.7518 15.7883 14.9709C14.5692 16.19 12.6084 16.19 11.3893 14.9709C10.1702 13.7518 10.1702 11.791 11.3893 10.5719C11.9989 9.96235 12.7942 9.65099 13.5888 9.65098ZM4.79984 12.3154C4.81302 12.0232 5.04438 11.788 5.3363 11.77C5.50057 11.7594 5.66146 11.82 5.77786 11.9364C5.89426 12.0528 5.9549 12.2137 5.94428 12.378C5.83905 14.4759 6.55512 16.601 8.15271 18.1986C9.75047 19.7963 11.8753 20.5121 13.9733 20.407C14.1777 20.3958 14.3726 20.4945 14.4845 20.666C14.5964 20.8374 14.6084 21.0556 14.5158 21.2382C14.4233 21.4209 14.2403 21.5403 14.0359 21.5514C11.6379 21.6716 9.18427 20.8394 7.34802 19.0032C5.51192 17.1672 4.67956 14.7134 4.79984 12.3154Z" fill="currentColor"/>
<path d="M4.68361 3.86618L4.57754 3.76011L4.68361 3.86618ZM22.494 3.86618L22.388 3.97224L22.494 3.86618ZM22.494 21.6677L22.6001 21.7737L22.494 21.6677ZM4.68361 21.6677L4.78967 21.5616L4.68361 21.6677ZM13.5888 1.318V1.468V1.318ZM21.6804 4.67086L21.5743 4.77693L21.6804 4.67086ZM5.49724 4.67086L5.6033 4.77693V4.77693L5.49724 4.67086ZM5.49724 20.863L5.6033 20.7569H5.6033L5.49724 20.863ZM21.6804 20.863L21.5743 20.7569L21.6804 20.863ZM13.1418 3.98241L13.1336 4.13218L13.1414 4.13261L13.1493 4.13222L13.1418 3.98241ZM13.5888 3.97347L13.5887 3.82347L13.5888 3.97347ZM13.0792 3.98241L13.071 3.83247L13.064 3.83317L13.0792 3.98241ZM12.6126 4.31883L12.7494 4.38033V4.38033L12.6126 4.31883ZM12.6707 4.8911L12.5491 4.97885V4.97885L12.6707 4.8911ZM13.1954 5.12685L13.1879 4.97684L13.1802 4.97762L13.1954 5.12685ZM19.016 7.33527L19.1221 7.22921V7.22921L19.016 7.33527ZM21.2244 13.1558L21.0746 13.1483L21.0746 13.1488L21.2244 13.1558ZM21.7698 13.7549L21.7768 13.6051L21.7698 13.7549ZM22.3689 13.2095L22.219 13.202L22.219 13.2025L22.3689 13.2095ZM19.8296 6.52164L19.9357 6.41558V6.41558L19.8296 6.52164ZM13.5888 8.51548V8.36548V8.51548ZM10.5847 9.75828L10.4786 9.65221L10.5847 9.75828ZM16.593 15.7756L16.4869 15.6695L16.4869 15.6695L16.593 15.7756ZM10.5847 15.7756L10.6907 15.6695L10.6907 15.6695L10.5847 15.7756ZM15.7883 10.5719L15.6822 10.678L15.7883 10.5719ZM13.5888 9.65098L13.5888 9.80098L13.5888 9.65098ZM15.7883 14.9709L15.6822 14.8648L15.6822 14.8648L15.7883 14.9709ZM11.3893 14.9709L11.4954 14.8648L11.4954 14.8648L11.3893 14.9709ZM11.3893 10.5719L11.2833 10.4658L11.3893 10.5719ZM5.3363 11.77L5.34554 11.9197L5.34597 11.9197L5.3363 11.77ZM4.79984 12.3154L4.94965 12.3229L4.94969 12.3222L4.79984 12.3154ZM5.77786 11.9364L5.88392 11.8304L5.88392 11.8304L5.77786 11.9364ZM5.94428 12.378L5.79458 12.3683L5.79447 12.3705L5.94428 12.378ZM8.15271 18.1986L8.04664 18.3046L8.04664 18.3046L8.15271 18.1986ZM13.9733 20.407L13.9808 20.5568L13.9815 20.5567L13.9733 20.407ZM14.4845 20.666L14.3589 20.748H14.3589L14.4845 20.666ZM14.0359 21.5514L14.0434 21.7012L14.044 21.7012L14.0359 21.5514ZM7.34802 19.0032L7.24195 19.1093L7.24195 19.1093L7.34802 19.0032ZM13.5888 0.0324951C10.3278 0.0325067 7.06262 1.27503 4.57754 3.76011L4.78967 3.97224C7.21606 1.54585 10.4039 0.332506 13.5888 0.332495L13.5888 0.0324951ZM22.6001 3.76011C20.115 1.27502 16.8498 0.0324835 13.5888 0.0324951L13.5888 0.332495C16.7738 0.332484 19.9616 1.54585 22.388 3.97224L22.6001 3.76011ZM22.6001 21.7737C27.5701 16.8036 27.5702 8.73017 22.6001 3.76011L22.388 3.97224C27.2409 8.82514 27.2409 16.7087 22.388 21.5616L22.6001 21.7737ZM4.57754 21.7737C9.5476 26.7438 17.63 26.7437 22.6001 21.7737L22.388 21.5616C17.5351 26.4144 9.64258 26.4145 4.78967 21.5616L4.57754 21.7737ZM4.57754 3.76011C-0.392509 8.73016 -0.392518 16.8037 4.57754 21.7737L4.78967 21.5616C-0.0632287 16.7087 -0.0632205 8.82513 4.78967 3.97224L4.57754 3.76011ZM13.5888 1.468C16.4783 1.46799 19.3665 2.56912 21.5743 4.77693L21.7865 4.5648C19.5201 2.29848 16.5547 1.16799 13.5888 1.168V1.468ZM5.6033 4.77693C7.81111 2.56912 10.6993 1.46801 13.5888 1.468V1.168C10.623 1.16801 7.65749 2.29848 5.39117 4.5648L5.6033 4.77693ZM5.6033 20.7569C1.18775 16.3414 1.18775 9.19248 5.6033 4.77693L5.39117 4.5648C0.858462 9.0975 0.85846 16.4363 5.39117 20.969L5.6033 20.7569ZM21.5743 20.7569C17.1588 25.1725 10.0189 25.1725 5.6033 20.7569L5.39117 20.969C9.92388 25.5018 17.2538 25.5018 21.7865 20.969L21.5743 20.7569ZM21.5743 4.77693C25.9899 9.19248 25.9899 16.3414 21.5743 20.7569L21.7865 20.969C26.3192 16.4364 26.3192 9.09751 21.7865 4.5648L21.5743 4.77693ZM13.1493 4.13222C13.2953 4.1249 13.4393 4.12359 13.5889 4.12347L13.5887 3.82347C13.438 3.82359 13.288 3.82489 13.1343 3.8326L13.1493 4.13222ZM13.0874 4.13218C13.1028 4.13134 13.1182 4.13134 13.1336 4.13218L13.15 3.83263C13.1237 3.83119 13.0973 3.83119 13.071 3.83263L13.0874 4.13218ZM12.7494 4.38033C12.8117 4.24177 12.9432 4.14697 13.0943 4.13164L13.064 3.83317C12.8063 3.85932 12.582 4.02101 12.4758 4.25734L12.7494 4.38033ZM12.7924 4.80336C12.7035 4.68015 12.6871 4.51889 12.7494 4.38033L12.4758 4.25734C12.3696 4.49366 12.3975 4.76871 12.5491 4.97885L12.7924 4.80336ZM13.1802 4.97762C13.0291 4.99299 12.8813 4.92656 12.7924 4.80336L12.5491 4.97885C12.7006 5.18899 12.9528 5.3023 13.2106 5.27608L13.1802 4.97762ZM19.1221 7.22921C17.4921 5.59931 15.3249 4.86996 13.1879 4.97704L13.2029 5.27667C15.262 5.17349 17.3445 5.87595 18.9099 7.44134L19.1221 7.22921ZM21.3742 13.1634C21.4814 11.0263 20.752 8.85913 19.1221 7.22921L18.9099 7.44134C20.4753 9.00675 21.1779 11.0893 21.0746 13.1483L21.3742 13.1634ZM21.7768 13.6051C21.5436 13.5941 21.3633 13.3961 21.3742 13.1629L21.0746 13.1488C21.0559 13.5476 21.364 13.886 21.7628 13.9047L21.7768 13.6051ZM22.219 13.2025C22.2081 13.4357 22.0101 13.616 21.7768 13.6051L21.7628 13.9047C22.1616 13.9234 22.5 13.6153 22.5187 13.2165L22.219 13.2025ZM19.7235 6.62771C21.5274 8.43159 22.3374 10.8429 22.219 13.202L22.5187 13.217C22.6409 10.78 21.8041 8.28403 19.9357 6.41558L19.7235 6.62771ZM13.5889 4.12347C15.8045 4.12166 18.0325 4.93666 19.7235 6.62771L19.9357 6.41558C18.1839 4.66386 15.8775 3.8216 13.5887 3.82347L13.5889 4.12347ZM13.5888 8.36548C12.4609 8.36548 11.3361 8.79468 10.4786 9.65221L10.6907 9.86434C11.4896 9.06542 12.5371 8.66548 13.5888 8.66548V8.36548ZM16.699 9.65221C15.8415 8.79468 14.7168 8.36548 13.5888 8.36548V8.66548C14.6406 8.66548 15.688 9.06541 16.4869 9.86434L16.699 9.65221ZM16.699 15.8816C18.4141 14.1666 18.4141 11.3672 16.699 9.65221L16.4869 9.86434C18.0848 11.4622 18.0848 14.0716 16.4869 15.6695L16.699 15.8816ZM10.4786 15.8816C12.1936 17.5967 14.984 17.5967 16.699 15.8816L16.4869 15.6695C14.889 17.2674 12.2886 17.2674 10.6907 15.6695L10.4786 15.8816ZM10.4786 9.65221C8.76355 11.3672 8.76354 14.1666 10.4786 15.8816L10.6907 15.6695C9.09283 14.0716 9.09284 11.4622 10.6907 9.86434L10.4786 9.65221ZM15.8944 10.4658C15.2563 9.8278 14.4227 9.50098 13.5888 9.50099L13.5888 9.80098C14.3441 9.80098 15.1012 10.0969 15.6822 10.678L15.8944 10.4658ZM15.8944 15.0769C17.172 13.7993 17.172 11.7435 15.8944 10.4658L15.6822 10.678C16.8428 11.8385 16.8428 13.7043 15.6822 14.8648L15.8944 15.0769ZM11.2833 15.0769C12.561 16.3546 14.6167 16.3546 15.8944 15.0769L15.6822 14.8648C14.5217 16.0253 12.6559 16.0253 11.4954 14.8648L11.2833 15.0769ZM11.2833 10.4658C10.0056 11.7435 10.0056 13.7993 11.2833 15.0769L11.4954 14.8648C10.3349 13.7043 10.3349 11.8385 11.4954 10.678L11.2833 10.4658ZM13.5888 9.50099C12.755 9.50099 11.9213 9.8278 11.2833 10.4658L11.4954 10.678C12.0765 10.0969 12.8335 9.80099 13.5888 9.80098L13.5888 9.50099ZM5.32706 11.6203C4.95863 11.643 4.66663 11.9399 4.64999 12.3086L4.94969 12.3222C4.95942 12.1066 5.13014 11.933 5.34554 11.9197L5.32706 11.6203ZM5.88392 11.8304C5.73701 11.6834 5.53396 11.6069 5.32663 11.6203L5.34597 11.9197C5.46719 11.9119 5.5859 11.9566 5.67179 12.0425L5.88392 11.8304ZM6.09397 12.3877C6.10737 12.1803 6.03083 11.9773 5.88392 11.8304L5.67179 12.0425C5.75768 12.1284 5.80243 12.2471 5.7946 12.3683L6.09397 12.3877ZM8.25877 18.0925C6.69344 16.5272 5.99082 14.4444 6.0941 12.3855L5.79447 12.3705C5.68729 14.5074 6.4168 16.6748 8.04664 18.3046L8.25877 18.0925ZM13.9658 20.2572C11.9068 20.3604 9.82428 19.6579 8.25877 18.0925L8.04664 18.3046C9.67666 19.9346 11.8438 20.6639 13.9808 20.5568L13.9658 20.2572ZM14.6101 20.584C14.4689 20.3676 14.223 20.2431 13.9651 20.2572L13.9815 20.5567C14.1324 20.5485 14.2763 20.6214 14.3589 20.748L14.6101 20.584ZM14.6496 21.306C14.7664 21.0756 14.7513 20.8003 14.6101 20.584L14.3589 20.748C14.4415 20.8745 14.4503 21.0356 14.382 21.1704L14.6496 21.306ZM14.044 21.7012C14.302 21.6871 14.5329 21.5365 14.6496 21.306L14.382 21.1704C14.3137 21.3053 14.1786 21.3934 14.0277 21.4016L14.044 21.7012ZM7.24195 19.1093C9.11023 20.9775 11.6061 21.8234 14.0434 21.7012L14.0284 21.4016C11.6698 21.5199 9.2583 20.7014 7.45408 18.8972L7.24195 19.1093ZM4.65003 12.3079C4.52778 14.7453 5.37383 17.2412 7.24195 19.1093L7.45408 18.8972C5.65002 17.0931 4.83135 14.6816 4.94965 12.3229L4.65003 12.3079Z" fill="currentColor"/>
</svg>
