<svg width="30" height="30" viewBox="0 0 30 30" fill="none" xmlns="http://www.w3.org/2000/svg">
<path fill-rule="evenodd" clip-rule="evenodd" d="M11 2C10.0807 2 9.17049 2.18106 8.32122 2.53284C7.47194 2.88463 6.70026 3.40024 6.05025 4.05025C5.40024 4.70026 4.88463 5.47194 4.53284 6.32122C4.18106 7.17049 4 8.08075 4 9C4 9.91925 4.18106 10.8295 4.53284 11.6788C4.88463 12.5281 5.40024 13.2997 6.05025 13.9497C6.70026 14.5998 7.47194 15.1154 8.32122 15.4672C9.17049 15.8189 10.0807 16 11 16C12.8565 16 14.637 15.2625 15.9497 13.9497C17.2625 12.637 18 10.8565 18 9C18 7.14348 17.2625 5.36301 15.9497 4.05025C14.637 2.7375 12.8565 2 11 2ZM7 9C7 7.93913 7.42143 6.92172 8.17157 6.17157C8.92172 5.42143 9.93913 5 11 5C12.0609 5 13.0783 5.42143 13.8284 6.17157C14.5786 6.92172 15 7.93913 15 9C15 10.0609 14.5786 11.0783 13.8284 11.8284C13.0783 12.5786 12.0609 13 11 13C9.93913 13 8.92172 12.5786 8.17157 11.8284C7.42143 11.0783 7 10.0609 7 9Z" fill="currentColor"/>
<path d="M7.5 18C5.51088 18 3.60322 18.7902 2.1967 20.1967C0.790176 21.6032 0 23.5109 0 25.5V26.5C0 26.8978 0.158035 27.2794 0.43934 27.5607C0.720644 27.842 1.10218 28 1.5 28C1.89782 28 2.27936 27.842 2.56066 27.5607C2.84196 27.2794 3 26.8978 3 26.5V25.5C3 24.3065 3.47411 23.1619 4.31802 22.318C5.16193 21.4741 6.30653 21 7.5 21H14.5C15.0909 21 15.6761 21.1164 16.2221 21.3425C16.768 21.5687 17.2641 21.9002 17.682 22.318C18.0998 22.7359 18.4313 23.232 18.6575 23.7779C18.8836 24.3239 19 24.9091 19 25.5V26.5C19 26.8978 19.158 27.2794 19.4393 27.5607C19.7206 27.842 20.1022 28 20.5 28C20.8978 28 21.2794 27.842 21.5607 27.5607C21.842 27.2794 22 26.8978 22 26.5V25.5C22 23.5109 21.2098 21.6032 19.8033 20.1967C18.3968 18.7902 16.4891 18 14.5 18H7.5ZM21.5 19.5C21.5 19.1022 21.658 18.7207 21.9393 18.4393C22.2206 18.158 22.6022 18 23 18H23.5C25.2239 18 26.8772 18.6848 28.0962 19.9038C29.3152 21.1228 30 22.7761 30 24.5V26.5C30 26.8978 29.842 27.2794 29.5607 27.5607C29.2794 27.842 28.8978 28 28.5 28C28.1022 28 27.7206 27.842 27.4393 27.5607C27.158 27.2794 27 26.8978 27 26.5V24.5C27 23.5717 26.6313 22.6815 25.9749 22.0251C25.3185 21.3688 24.4283 21 23.5 21H23C22.6022 21 22.2206 20.842 21.9393 20.5607C21.658 20.2794 21.5 19.8978 21.5 19.5ZM21.546 2.48C21.1795 2.35204 20.7776 2.37117 20.4249 2.53338C20.0721 2.69559 19.796 2.98824 19.6546 3.34981C19.5132 3.71137 19.5175 4.11368 19.6666 4.47215C19.8156 4.83063 20.0979 5.11734 20.454 5.272C21.2044 5.56493 21.8489 6.07747 22.3032 6.7426C22.7576 7.40773 23.0007 8.1945 23.0007 9.00001C23.0007 9.80551 22.7576 10.5923 22.3032 11.2574C21.8489 11.9225 21.2044 12.4351 20.454 12.728C20.0878 12.8758 19.7946 13.1621 19.6381 13.5248C19.4817 13.8874 19.4746 14.2971 19.6184 14.665C19.7621 15.0329 20.0452 15.3292 20.4061 15.4896C20.767 15.6501 21.1766 15.6617 21.546 15.522C22.8585 15.0093 23.9857 14.1125 24.7804 12.9489C25.575 11.7853 26.0002 10.4091 26.0002 9.00001C26.0002 7.59095 25.575 6.21467 24.7804 5.05108C23.9857 3.88749 22.8585 2.99272 21.546 2.48Z" fill="currentColor"/>
</svg>
