<svg xmlns="http://www.w3.org/2000/svg" width="17" height="17" viewBox="0 0 17 17" fill="none">
  <path fill-rule="evenodd" clip-rule="evenodd" d="M8.5 1C7.94772 1 7.5 1.44772 7.5 2V7.5H2C1.44772 7.5 1 7.94772 1 8.5C1 9.05229 1.44772 9.5 2 9.5H7.5V15C7.5 15.5523 7.94772 16 8.5 16C9.05229 16 9.5 15.5523 9.5 15V9.5H15C15.5523 9.5 16 9.05229 16 8.5C16 7.94772 15.5523 7.5 15 7.5H9.5V2C9.5 1.44772 9.05229 1 8.5 1Z" fill="currentColor"/>
  <path d="M7.5 7.5V7.7H7.7V7.5H7.5ZM7.5 9.5H7.7V9.3H7.5V9.5ZM9.5 9.5V9.3H9.3V9.5H9.5ZM9.5 7.5H9.3V7.7H9.5V7.5ZM7.7 2C7.7 1.55817 8.05817 1.2 8.5 1.2V0.8C7.83726 0.8 7.3 1.33726 7.3 2H7.7ZM7.7 7.5V2H7.3V7.5H7.7ZM2 7.7H7.5V7.3H2V7.7ZM1.2 8.5C1.2 8.05817 1.55817 7.7 2 7.7V7.3C1.33726 7.3 0.8 7.83726 0.8 8.5H1.2ZM2 9.3C1.55817 9.3 1.2 8.94183 1.2 8.5H0.8C0.8 9.16274 1.33726 9.7 2 9.7V9.3ZM7.5 9.3H2V9.7H7.5V9.3ZM7.7 15V9.5H7.3V15H7.7ZM8.5 15.8C8.05817 15.8 7.7 15.4418 7.7 15H7.3C7.3 15.6627 7.83726 16.2 8.5 16.2V15.8ZM9.3 15C9.3 15.4418 8.94183 15.8 8.5 15.8V16.2C9.16274 16.2 9.7 15.6627 9.7 15H9.3ZM9.3 9.5V15H9.7V9.5H9.3ZM15 9.3H9.5V9.7H15V9.3ZM15.8 8.5C15.8 8.94183 15.4418 9.3 15 9.3V9.7C15.6627 9.7 16.2 9.16274 16.2 8.5H15.8ZM15 7.7C15.4418 7.7 15.8 8.05817 15.8 8.5H16.2C16.2 7.83726 15.6627 7.3 15 7.3V7.7ZM9.5 7.7H15V7.3H9.5V7.7ZM9.3 2V7.5H9.7V2H9.3ZM8.5 1.2C8.94183 1.2 9.3 1.55817 9.3 2H9.7C9.7 1.33726 9.16274 0.8 8.5 0.8V1.2Z" fill="currentColor"/>
</svg>