<svg width="28" height="25" viewBox="0 0 28 25" fill="none" xmlns="http://www.w3.org/2000/svg">
<path fill-rule="evenodd" clip-rule="evenodd" d="M14 1C10.552 1 7.10634 2.43442 4.47674 5.3125C4.39908 5.39623 4.36783 5.51928 4.39478 5.6353C4.42173 5.75132 4.50278 5.84267 4.60738 5.87493C4.71199 5.90718 4.82426 5.87544 4.90189 5.79167C9.92918 0.28933 18.0708 0.28933 23.0981 5.79167C23.1757 5.87544 23.288 5.90718 23.3926 5.87493C23.4972 5.84267 23.5783 5.75132 23.6052 5.6353C23.6322 5.51928 23.6009 5.39623 23.5233 5.3125C20.8937 2.43442 17.448 1 14 1ZM14 4.09375C11.5101 4.09375 9.02068 5.13034 7.12209 7.20833C7.04442 7.29206 7.01318 7.41512 7.04013 7.53114C7.06707 7.64716 7.14812 7.7385 7.25273 7.77076C7.35734 7.80301 7.46961 7.77127 7.54724 7.6875C11.1125 3.78534 16.8875 3.78534 20.4528 7.6875C20.5304 7.77127 20.6427 7.80301 20.7473 7.77076C20.8519 7.7385 20.9329 7.64716 20.9599 7.53114C20.9868 7.41512 20.9556 7.29206 20.8779 7.20833C18.9793 5.13034 16.4899 4.09375 14 4.09375ZM9.87137 9.22917C11.0094 7.98357 12.5069 7.35417 14 7.35417C15.4931 7.35417 16.9906 7.98357 18.1286 9.22917C18.2046 9.31475 18.2334 9.43854 18.2041 9.55388C18.1749 9.66922 18.092 9.75858 17.9868 9.78829C17.8816 9.818 17.77 9.78355 17.694 9.69792C15.6498 7.46054 12.3502 7.46054 10.306 9.69792C10.23 9.78355 10.1184 9.818 10.0132 9.78829C9.90796 9.75858 9.82511 9.66922 9.79585 9.55388C9.7666 9.43854 9.79538 9.31475 9.87137 9.22917ZM14 9.75C13.6726 9.75 13.4048 10.0478 13.4048 10.4062C13.4048 10.6431 13.5246 10.845 13.6977 10.9583V16.1875H3.26744C2.01876 16.1875 1 17.3004 1 18.6771V21.5C1 22.8768 2.01876 24 3.26744 24H24.7326C25.9812 24 27 22.8768 27 21.5V18.6771C27 17.3004 25.9812 16.1875 24.7326 16.1875H14.3023V10.9583C14.4754 10.845 14.5952 10.6431 14.5952 10.4062C14.5952 10.0478 14.3274 9.75 14 9.75ZM26.3953 18.6771C26.3953 17.6581 25.6567 16.8542 24.7326 16.8542H3.26744C2.34328 16.8542 1.60465 17.6581 1.60465 18.6771V21.5C1.60465 22.519 2.34328 23.3333 3.26744 23.3333H24.7326C25.6567 23.3333 26.3953 22.519 26.3953 21.5V18.6771ZM5.22311 18.6667C4.5105 18.6667 3.91933 19.3137 3.91933 20.0938C3.91933 20.8739 4.5105 21.5208 5.22311 21.5208C5.93572 21.5208 6.51744 20.8739 6.51744 20.0938C6.51744 19.3137 5.93572 18.6667 5.22311 18.6667ZM5.91279 20.0938C5.91279 19.6726 5.60777 19.3438 5.22311 19.3438C4.83845 19.3438 4.53343 19.6726 4.53343 20.0938C4.53343 20.5149 4.83845 20.8542 5.22311 20.8542C5.60777 20.8542 5.91279 20.5149 5.91279 20.0938Z" fill="currentColor"/>
<path d="M4.47674 5.3125L4.73335 5.55054L4.73513 5.54858L4.47674 5.3125ZM4.39478 5.6353L4.05385 5.71449L4.05385 5.71449L4.39478 5.6353ZM4.90189 5.79167L5.15863 6.02956L5.16028 6.02775L4.90189 5.79167ZM23.0981 5.79167L22.8397 6.02775L22.8414 6.02955L23.0981 5.79167ZM23.3926 5.87493L23.2895 5.54046L23.2895 5.54046L23.3926 5.87493ZM23.5233 5.3125L23.2649 5.54859L23.2667 5.55053L23.5233 5.3125ZM7.12209 7.20833L7.3787 7.44637L7.38048 7.44441L7.12209 7.20833ZM7.04013 7.53114L7.38105 7.45195V7.45195L7.04013 7.53114ZM7.25273 7.77076L7.35586 7.4363H7.35586L7.25273 7.77076ZM7.54724 7.6875L7.80397 7.92539L7.80563 7.92358L7.54724 7.6875ZM20.4528 7.6875L20.1944 7.92359L20.196 7.92539L20.4528 7.6875ZM20.9599 7.53114L20.6189 7.45194V7.45195L20.9599 7.53114ZM20.8779 7.20833L20.6195 7.44442L20.6213 7.44637L20.8779 7.20833ZM9.87137 9.22917L9.61295 8.99306L9.60963 8.9968L9.87137 9.22917ZM18.1286 9.22917L18.3904 8.99678L18.387 8.99308L18.1286 9.22917ZM17.9868 9.78829L18.0819 10.1251L18.0819 10.1251L17.9868 9.78829ZM17.694 9.69792L17.9559 9.46568L17.9524 9.46183L17.694 9.69792ZM10.306 9.69792L10.0475 9.46181L10.0441 9.4657L10.306 9.69792ZM10.0132 9.78829L9.91807 10.1251H9.91808L10.0132 9.78829ZM13.6977 10.9583H14.0477V10.7691L13.8894 10.6655L13.6977 10.9583ZM13.6977 16.1875V16.5375H14.0477V16.1875H13.6977ZM14.3023 16.1875H13.9523V16.5375H14.3023V16.1875ZM14.3023 10.9583L14.1106 10.6655L13.9523 10.7691V10.9583H14.3023ZM4.73513 5.54858C7.29907 2.74237 10.6512 1.35 14 1.35V0.65C10.4527 0.65 6.91361 2.12647 4.21835 5.07642L4.73513 5.54858ZM4.7357 5.55611C4.73508 5.55344 4.73514 5.55037 4.73576 5.54793C4.73639 5.54546 4.73669 5.54692 4.73334 5.55053L4.22015 5.07447C4.05949 5.24766 4.00196 5.49109 4.05385 5.71449L4.7357 5.55611ZM4.71051 5.54046C4.72336 5.54442 4.73072 5.55081 4.73376 5.55424C4.73672 5.55756 4.7363 5.55869 4.7357 5.55611L4.05385 5.71449C4.10598 5.93888 4.2684 6.13666 4.50426 6.20939L4.71051 5.54046ZM4.64516 5.55378C4.64882 5.54983 4.65673 5.54363 4.66954 5.54001C4.68258 5.53632 4.69725 5.53638 4.71051 5.54046L4.50426 6.20939C4.74435 6.28342 4.99461 6.20655 5.15862 6.02955L4.64516 5.55378ZM23.3565 5.55558C18.1904 -0.0986428 9.80957 -0.0986426 4.6435 5.55558L5.16028 6.02775C10.0488 0.677303 17.9512 0.677303 22.8397 6.02775L23.3565 5.55558ZM23.2895 5.54046C23.3027 5.53638 23.3174 5.53632 23.3305 5.54001C23.3433 5.54363 23.3512 5.54983 23.3548 5.55378L22.8414 6.02955C23.0054 6.20655 23.2556 6.28342 23.4957 6.20939L23.2895 5.54046ZM23.2643 5.55611C23.2637 5.55869 23.2633 5.55756 23.2662 5.55424C23.2693 5.55081 23.2766 5.54442 23.2895 5.54046L23.4957 6.20939C23.7316 6.13666 23.894 5.93888 23.9461 5.71449L23.2643 5.55611ZM23.2667 5.55053C23.2633 5.54692 23.2636 5.54547 23.2642 5.54793C23.2649 5.55037 23.2649 5.55344 23.2643 5.55611L23.9461 5.71449C23.998 5.49109 23.9405 5.24766 23.7798 5.07447L23.2667 5.55053ZM14 1.35C17.3488 1.35 20.7009 2.74237 23.2649 5.54858L23.7816 5.07642C21.0864 2.12647 17.5473 0.65 14 0.65V1.35ZM7.38048 7.44441C9.21341 5.43828 11.6094 4.44375 14 4.44375V3.74375C11.4108 3.74375 8.82794 4.82241 6.8637 6.97225L7.38048 7.44441ZM7.38105 7.45195C7.38043 7.44927 7.38049 7.4462 7.38111 7.44376C7.38174 7.4413 7.38204 7.44275 7.37869 7.44637L6.8655 6.9703C6.70484 7.14349 6.64731 7.38693 6.6992 7.61033L7.38105 7.45195ZM7.35586 7.4363C7.36871 7.44026 7.37607 7.44664 7.37911 7.45007C7.38206 7.4534 7.38165 7.45452 7.38105 7.45195L6.6992 7.61032C6.75132 7.83472 6.91375 8.03249 7.1496 8.10522L7.35586 7.4363ZM7.29051 7.44961C7.29416 7.44567 7.30208 7.43946 7.31489 7.43584C7.32793 7.43216 7.3426 7.43221 7.35586 7.4363L7.1496 8.10522C7.3897 8.17925 7.63996 8.10239 7.80397 7.92539L7.29051 7.44961ZM20.7112 7.45142C17.0071 3.39737 10.9929 3.39737 7.28885 7.45142L7.80563 7.92358C11.2321 4.17332 16.7679 4.17332 20.1944 7.92358L20.7112 7.45142ZM20.6441 7.4363C20.6574 7.43221 20.6721 7.43216 20.6851 7.43584C20.6979 7.43946 20.7058 7.44567 20.7095 7.44961L20.196 7.92539C20.36 8.10239 20.6103 8.17925 20.8504 8.10522L20.6441 7.4363ZM20.6189 7.45195C20.6184 7.45452 20.6179 7.4534 20.6209 7.45007C20.6239 7.44665 20.6313 7.44026 20.6441 7.4363L20.8504 8.10522C21.0863 8.03249 21.2487 7.83472 21.3008 7.61032L20.6189 7.45195ZM20.6213 7.44637C20.618 7.44275 20.6183 7.4413 20.6189 7.44376C20.6195 7.4462 20.6196 7.44927 20.6189 7.45194L21.3008 7.61033C21.3527 7.38693 21.2952 7.14349 21.1345 6.9703L20.6213 7.44637ZM14 4.44375C16.3906 4.44375 18.7866 5.43828 20.6195 7.44441L21.1363 6.97225C19.1721 4.82241 16.5892 3.74375 14 3.74375V4.44375ZM14 7.00417C12.4068 7.00417 10.8161 7.67626 9.61298 8.99308L10.1298 9.46525C11.2027 8.29088 12.607 7.70417 14 7.70417V7.00417ZM18.387 8.99308C17.1839 7.67626 15.5932 7.00417 14 7.00417V7.70417C15.393 7.70417 16.7973 8.29088 17.8702 9.46525L18.387 8.99308ZM18.5434 9.63993C18.5998 9.41749 18.5469 9.17316 18.3904 8.9968L17.8669 9.46153C17.8639 9.45814 17.8643 9.457 17.865 9.45964C17.8656 9.46226 17.8655 9.46534 17.8649 9.46783L18.5434 9.63993ZM18.0819 10.1251C18.3199 10.0579 18.4867 9.86346 18.5434 9.63993L17.8649 9.46783C17.8643 9.47021 17.864 9.46879 17.8673 9.46523C17.8707 9.46158 17.8785 9.45518 17.8917 9.45146L18.0819 10.1251ZM17.4322 9.93013C17.5919 10.1102 17.84 10.1934 18.0819 10.1251L17.8917 9.45146C17.9053 9.44763 17.92 9.448 17.9327 9.45193C17.9452 9.45578 17.9526 9.46199 17.9559 9.4657L17.4322 9.93013ZM10.5644 9.934C12.4698 7.84851 15.5302 7.84851 17.4356 9.934L17.9524 9.46183C15.7694 7.07256 12.2306 7.07256 10.0476 9.46183L10.5644 9.934ZM9.91808 10.1251C10.16 10.1934 10.4081 10.1102 10.5678 9.93013L10.0441 9.4657C10.0474 9.46199 10.0548 9.45578 10.0673 9.45193C10.08 9.448 10.0947 9.44763 10.1083 9.45146L9.91808 10.1251ZM9.4566 9.63993C9.51329 9.86346 9.68013 10.0579 9.91807 10.1251L10.1083 9.45146C10.1215 9.45518 10.1293 9.46158 10.1327 9.46523C10.136 9.46879 10.1357 9.47021 10.1351 9.46783L9.4566 9.63993ZM9.60963 8.9968C9.45306 9.17316 9.40018 9.41749 9.4566 9.63993L10.1351 9.46783C10.1345 9.46533 10.1344 9.46226 10.135 9.45964C10.1357 9.457 10.1361 9.45814 10.1331 9.46153L9.60963 8.9968ZM13.7548 10.4062C13.7548 10.2072 13.8981 10.1 14 10.1V9.4C13.4471 9.4 13.0548 9.88837 13.0548 10.4062H13.7548ZM13.8894 10.6655C13.8127 10.6153 13.7548 10.5223 13.7548 10.4062H13.0548C13.0548 10.7639 13.2364 11.0747 13.506 11.2512L13.8894 10.6655ZM14.0477 16.1875V10.9583H13.3477V16.1875H14.0477ZM3.26744 16.5375H13.6977V15.8375H3.26744V16.5375ZM1.35 18.6771C1.35 17.4627 2.24163 16.5375 3.26744 16.5375V15.8375C1.79589 15.8375 0.65 17.138 0.65 18.6771H1.35ZM1.35 21.5V18.6771H0.65V21.5H1.35ZM3.26744 23.65C2.24343 23.65 1.35 22.7164 1.35 21.5H0.65C0.65 23.0371 1.79409 24.35 3.26744 24.35V23.65ZM24.7326 23.65H3.26744V24.35H24.7326V23.65ZM26.65 21.5C26.65 22.7164 25.7566 23.65 24.7326 23.65V24.35C26.2059 24.35 27.35 23.0371 27.35 21.5H26.65ZM26.65 18.6771V21.5H27.35V18.6771H26.65ZM24.7326 16.5375C25.7584 16.5375 26.65 17.4627 26.65 18.6771H27.35C27.35 17.138 26.2041 15.8375 24.7326 15.8375V16.5375ZM14.3023 16.5375H24.7326V15.8375H14.3023V16.5375ZM13.9523 10.9583V16.1875H14.6523V10.9583H13.9523ZM14.2452 10.4062C14.2452 10.5223 14.1873 10.6153 14.1106 10.6655L14.494 11.2512C14.7636 11.0747 14.9452 10.7639 14.9452 10.4062H14.2452ZM14 10.1C14.1019 10.1 14.2452 10.2072 14.2452 10.4062H14.9452C14.9452 9.88837 14.5529 9.4 14 9.4V10.1ZM24.7326 17.2042C25.4345 17.2042 26.0453 17.8212 26.0453 18.6771H26.7453C26.7453 17.4951 25.8789 16.5042 24.7326 16.5042V17.2042ZM3.26744 17.2042H24.7326V16.5042H3.26744V17.2042ZM1.95465 18.6771C1.95465 17.8212 2.56548 17.2042 3.26744 17.2042V16.5042C2.12107 16.5042 1.25465 17.4951 1.25465 18.6771H1.95465ZM1.95465 21.5V18.6771H1.25465V21.5H1.95465ZM3.26744 22.9833C2.56795 22.9833 1.95465 22.3586 1.95465 21.5H1.25465C1.25465 22.6793 2.11861 23.6833 3.26744 23.6833V22.9833ZM24.7326 22.9833H3.26744V23.6833H24.7326V22.9833ZM26.0453 21.5C26.0453 22.3586 25.4321 22.9833 24.7326 22.9833V23.6833C25.8814 23.6833 26.7453 22.6793 26.7453 21.5H26.0453ZM26.0453 18.6771V21.5H26.7453V18.6771H26.0453ZM4.26933 20.0938C4.26933 19.4765 4.73288 19.0167 5.22311 19.0167V18.3167C4.28812 18.3167 3.56933 19.1508 3.56933 20.0938H4.26933ZM5.22311 21.1708C4.73288 21.1708 4.26933 20.711 4.26933 20.0938H3.56933C3.56933 21.0368 4.28812 21.8708 5.22311 21.8708V21.1708ZM6.16744 20.0938C6.16744 20.7144 5.71021 21.1708 5.22311 21.1708V21.8708C6.16123 21.8708 6.86744 21.0333 6.86744 20.0938H6.16744ZM5.22311 19.0167C5.71021 19.0167 6.16744 19.4731 6.16744 20.0938H6.86744C6.86744 19.1542 6.16123 18.3167 5.22311 18.3167V19.0167ZM5.22311 19.6938C5.38824 19.6938 5.56279 19.8386 5.56279 20.0938H6.26279C6.26279 19.5067 5.82731 18.9937 5.22311 18.9937V19.6938ZM4.88343 20.0938C4.88343 19.8386 5.05798 19.6938 5.22311 19.6938V18.9937C4.61891 18.9937 4.18343 19.5067 4.18343 20.0938H4.88343ZM5.22311 20.5042C5.06397 20.5042 4.88343 20.3554 4.88343 20.0938H4.18343C4.18343 20.6743 4.61292 21.2042 5.22311 21.2042V20.5042ZM5.56279 20.0938C5.56279 20.3554 5.38225 20.5042 5.22311 20.5042V21.2042C5.8333 21.2042 6.26279 20.6743 6.26279 20.0938H5.56279Z" fill="currentColor"/>
</svg>
