<svg width="28" height="30" viewBox="0 0 28 30" fill="none" xmlns="http://www.w3.org/2000/svg">
<path fill-rule="evenodd" clip-rule="evenodd" d="M13.4487 30C12.3469 29.3404 11.2662 28.6451 10.2082 27.9152C9.1295 27.1714 8.09168 26.3686 7.09907 25.5089C6.11292 24.6448 5.18706 23.715 4.3258 22.7218C3.46453 21.7265 2.70447 20.6436 2.06498 19.4886C1.4216 18.3206 0.915714 17.0797 0.55777 15.7915C0.182668 14.4257 -0.0049937 13.0137 0.000101005 11.5957V4.59538L1.07668 3.50158C1.79368 3.50158 2.48915 3.47751 3.16525 3.42282C3.80258 3.37251 4.43776 3.27844 5.06433 3.14281C5.67583 3.00718 6.27441 2.81905 6.85576 2.58278C7.46726 2.32465 8.05507 2.01182 8.61274 1.64868C9.40324 1.1208 10.2609 0.704966 11.1621 0.412683C12.56 0.00229651 14.0274 -0.103559 15.4684 0.102044C16.395 0.233181 17.2945 0.516139 18.1319 0.939895C18.5603 1.15209 18.9759 1.38617 19.3807 1.6443C19.9405 2.00963 20.5326 2.32246 21.1484 2.5806C21.7298 2.81905 22.3262 3.00499 22.9377 3.14062C23.5643 3.27625 24.2016 3.37251 24.8411 3.42282C25.5107 3.47533 26.2062 3.49939 26.9232 3.49939L27.9998 4.59319V11.5935C28.0071 13.012 27.8216 14.4246 27.4486 15.7915C27.0906 17.0796 26.5847 18.3205 25.9414 19.4886C25.3 20.643 24.5423 21.7265 23.6806 22.7218C22.8193 23.7106 21.8956 24.6404 20.9116 25.5001C19.9182 26.3618 18.8773 27.1653 17.7938 27.9065C16.7317 28.6377 15.6474 29.3351 14.5425 29.9978H13.4487V30ZM2.15326 5.6673V11.5957C2.14465 12.8098 2.30398 14.0239 2.62696 15.1943C2.93697 16.3177 3.3779 17.3995 3.94038 18.4166C4.50666 19.4383 5.17845 20.3964 5.94282 21.278C6.73949 22.1903 7.59214 23.05 8.50078 23.8463C9.43094 24.6513 10.402 25.4039 11.4118 26.0995C12.2731 26.6836 13.1344 27.2436 13.9956 27.7818C14.8569 27.2524 15.7182 26.6923 16.5794 26.1017C17.5914 25.4038 18.5668 24.6513 19.497 23.8463C20.4034 23.05 21.2561 22.1924 22.0506 21.2824C22.8132 20.4011 23.4842 19.4422 24.053 18.421C24.615 17.4038 25.0564 16.3209 25.3665 15.1987C25.6895 14.0239 25.8466 12.8142 25.8402 11.5957V5.6673C25.4978 5.6673 25.1662 5.64105 24.839 5.61699L24.6689 5.60386C23.9321 5.54485 23.2 5.43744 22.4769 5.28229C20.9668 4.94719 19.5266 4.3444 18.2223 3.50158C17.887 3.28603 17.5405 3.08886 17.1845 2.91092C16.545 2.59149 15.8597 2.37735 15.154 2.27652C14.0324 2.10951 12.8885 2.18858 11.7994 2.50841C11.0846 2.74467 10.402 3.07718 9.77545 3.4972C9.10366 3.93472 8.39742 4.31099 7.65889 4.61944C6.96041 4.90262 6.24029 5.12724 5.50573 5.29104C4.78442 5.44417 4.05235 5.55355 3.31597 5.61042C2.94132 5.6323 2.5516 5.65418 2.15326 5.6673ZM15.2122 15.074C15.906 14.7873 16.4803 14.2646 16.8366 13.5952C17.1929 12.9258 17.3091 12.1514 17.1654 11.4046C17.0216 10.6577 16.6268 9.98483 16.0486 9.5011C15.4704 9.01737 14.7447 8.75287 13.9956 8.75287C13.2466 8.75287 12.5209 9.01737 11.9427 9.5011C11.3644 9.98483 10.9697 10.6577 10.8259 11.4046C10.6822 12.1514 10.7984 12.9258 11.1547 13.5952C11.511 14.2646 12.0852 14.7873 12.7791 15.074L11.8425 20.7836H16.1488L15.2122 15.074Z" fill="currentColor"/>
</svg>
