<svg width="30" height="24" viewBox="0 0 30 24" fill="none" xmlns="http://www.w3.org/2000/svg">
<path fill-rule="evenodd" clip-rule="evenodd" d="M26.9913 10.943C27.7213 11.528 27.7213 12.473 26.9913 13.059L23.3875 15.95C22.9 16.34 22.1 16.34 21.6125 15.95C21.4966 15.8575 21.4047 15.7476 21.342 15.6266C21.2792 15.5057 21.2469 15.376 21.2469 15.245C21.2469 15.114 21.2792 14.9843 21.342 14.8634C21.4047 14.7424 21.4966 14.6325 21.6125 14.54C22.2504 14.0293 22.9587 13.5781 23.7238 13.195L24.2075 12.953L23.9488 12.747C23.0304 12.9158 22.0911 13.001 21.1488 13.001H11.2475C10.916 13.001 10.598 12.8956 10.3636 12.7081C10.1292 12.5206 9.9975 12.2662 9.9975 12.001C9.9975 11.7358 10.1292 11.4814 10.3636 11.2939C10.598 11.1064 10.916 11.001 11.2475 11.001H21.1488C22.0911 11.001 23.0304 11.0862 23.9488 11.255L24.2075 11.049L23.725 10.808C22.9594 10.424 22.2507 9.97177 21.6125 9.46C21.4966 9.36749 21.4047 9.2576 21.342 9.13662C21.2792 9.01565 21.2469 8.88597 21.2469 8.755C21.2469 8.62403 21.2792 8.49435 21.342 8.37338C21.4047 8.2524 21.4966 8.14251 21.6125 8.05C22.1 7.66 22.9 7.66 23.3875 8.05L26.9913 10.943ZM17.5 16C17.1685 16 16.8505 16.1054 16.6161 16.2929C16.3817 16.4804 16.25 16.7348 16.25 17V18.5C16.25 18.6326 16.1842 18.7598 16.0669 18.8536C15.9497 18.9473 15.7908 19 15.625 19H6.875C6.70924 19 6.55027 18.9473 6.43306 18.8536C6.31585 18.7598 6.25 18.6326 6.25 18.5V5.5C6.25 5.36739 6.31585 5.24021 6.43306 5.14645C6.55027 5.05268 6.70924 5 6.875 5H15.625C15.7908 5 15.9497 5.05268 16.0669 5.14645C16.1842 5.24021 16.25 5.36739 16.25 5.5V7.005C16.25 7.27022 16.3817 7.52457 16.6161 7.71211C16.8505 7.89964 17.1685 8.005 17.5 8.005C17.8315 8.005 18.1495 7.89964 18.3839 7.71211C18.6183 7.52457 18.75 7.27022 18.75 7.005V5.5C18.75 4.83696 18.4208 4.20107 17.8347 3.73223C17.2487 3.26339 16.4538 3 15.625 3H6.875C6.0462 3 5.25134 3.26339 4.66529 3.73223C4.07924 4.20107 3.75 4.83696 3.75 5.5V18.5C3.75 19.163 4.07924 19.7989 4.66529 20.2678C5.25134 20.7366 6.0462 21 6.875 21H15.625C16.4538 21 17.2487 20.7366 17.8347 20.2678C18.4208 19.7989 18.75 19.163 18.75 18.5V17C18.75 16.7348 18.6183 16.4804 18.3839 16.2929C18.1495 16.1054 17.8315 16 17.5 16Z" fill="#5c5f62"/>
</svg>
