<svg width="354" height="210" viewBox="0 0 354 210" fill="none" xmlns="http://www.w3.org/2000/svg">
<path opacity="0.286551" d="M49 170C102.21 177.955 79.8886 152.446 113 151C146.545 149.554 132.407 105.332 191.706 130.72C227.033 140.484 206.846 77.9918 267.894 96.4213C285.083 101.61 297.432 120.286 317 125C327.187 127.454 347.983 111.875 354 119C377.475 146.8 368 213.819 368 213.819L0 213C0 213 17.4791 165.3 49 170Z" fill="#FACA65"/>
<path opacity="0.286551" d="M195 215C241.903 222.955 225.813 169.446 255 168C277.989 166.876 280.842 136.168 305 141C320 144 320 155 332 142C344 109 357 125 357 125L354 217C354 217 167.215 210.3 195 215Z" fill="#FACA65"/>
<path d="M326.226 181.504C326.226 181.465 326.226 181.504 326.226 181.504C326.186 181.426 326.146 181.387 326.106 181.348C323.558 178.076 324.354 173.284 324.593 172.233C324.593 172.155 324.633 172.116 324.633 172.038V171.999C324.713 171.531 324.753 171.064 324.753 170.596C324.753 166.428 321.289 163 316.989 163C312.729 163 309.225 166.389 309.225 170.596C309.225 171.064 309.265 171.531 309.384 171.999V172.038C309.384 172.116 309.424 172.155 309.424 172.233C309.663 173.323 310.419 178.115 307.911 181.348C307.871 181.387 307.871 181.426 307.831 181.465C307.831 181.465 307.831 181.465 307.831 181.504C306.677 183.218 306 185.283 306 187.503C306 193.464 310.937 198.294 317.029 198.294C323.12 198.294 328.057 193.464 328.057 187.503C328.097 185.283 327.42 183.218 326.226 181.504Z" fill="#FAB833"/>
<path d="M317.029 173.29V211.29" stroke="white" stroke-width="0.754941"/>
<path d="M310.844 181.359L317.02 190.183" stroke="white" stroke-width="0.754941"/>
<path d="M321.487 174.898L317.075 180.192" stroke="white" stroke-width="0.754941"/>
<path d="M293.226 168.504C293.226 168.465 293.226 168.504 293.226 168.504C293.186 168.426 293.146 168.387 293.106 168.348C290.558 165.076 291.354 160.284 291.593 159.233C291.593 159.155 291.633 159.116 291.633 159.038V158.999C291.713 158.531 291.753 158.064 291.753 157.596C291.753 153.428 288.289 150 283.989 150C279.729 150 276.225 153.389 276.225 157.596C276.225 158.064 276.265 158.531 276.384 158.999V159.038C276.384 159.116 276.424 159.155 276.424 159.233C276.663 160.323 277.419 165.115 274.911 168.348C274.871 168.387 274.871 168.426 274.831 168.465C274.831 168.465 274.831 168.465 274.831 168.504C273.677 170.218 273 172.283 273 174.503C273 180.464 277.937 185.294 284.029 185.294C290.12 185.294 295.057 180.464 295.057 174.503C295.097 172.283 294.42 170.218 293.226 168.504Z" fill="#FAB833"/>
<path d="M284.029 160.29L284.02 210.5" stroke="white" stroke-width="0.754941"/>
<path d="M277.844 168.359L284.02 177.183" stroke="white" stroke-width="0.754941"/>
<path d="M288.487 161.898L284.075 167.192" stroke="white" stroke-width="0.754941"/>
<path opacity="0.654971" fill-rule="evenodd" clip-rule="evenodd" d="M47.3819 25.7897C41.4199 27.2962 36.3086 23.2688 36.3086 23.2688C36.3086 23.2688 30.3437 16.0341 39.7908 13.5731C42.3031 12.9187 42.9273 11.7061 43.5141 10.5661C44.0236 9.57644 44.5048 8.64154 46.1691 8.17421C49.0501 7.36518 50.452 8.57287 51.5783 9.54314C52.7909 10.5878 53.6841 11.3573 55.76 9.03801C60.8601 3.33998 67.2881 13.5731 67.2881 13.5731C67.2881 13.5731 78.5238 7.72982 81.4748 16.6276C84.4257 25.5253 74.2123 27.2078 69.0058 25.7897C67.7903 25.4587 66.5482 26.291 65.0412 27.3009C63.2208 28.5209 61.0137 30 58 30C55.0089 30 52.9871 28.5434 51.3015 27.3289C49.8827 26.3068 48.7021 25.4562 47.3819 25.7897ZM274.63 41.593C265.439 43.8855 257.559 37.7568 257.559 37.7568C257.559 37.7568 248.363 26.7476 262.927 23.0026C266.801 22.0066 267.763 20.1614 268.668 18.4267C269.453 16.9207 270.195 15.498 272.761 14.7868C277.202 13.5557 279.363 15.3935 281.1 16.87C282.969 18.4597 284.346 19.6306 287.547 16.1013C295.409 7.4304 305.319 23.0026 305.319 23.0026C305.319 23.0026 322.641 14.1106 327.19 27.6506C331.74 41.1907 315.994 43.7509 307.967 41.593C306.093 41.0893 304.178 42.3559 301.855 43.8927C299.049 45.7492 295.646 48 291 48C286.389 48 283.272 45.7834 280.673 43.9353C278.486 42.3799 276.666 41.0854 274.63 41.593Z" fill="url(#paint0_linear_301_602)"/>
<g opacity="0.288272" filter="url(#filter0_f_301_602)">
<ellipse cx="175.505" cy="199.98" rx="39.3165" ry="3.88311" fill="#FFA446"/>
</g>
<path d="M161.11 192.423L159.175 176.665L167.653 178.047L168.759 194.635L160.649 192.884L161.11 192.423Z" fill="#ECACA1"/>
<path d="M170.049 190.58C170.049 190.58 163.23 193.069 160.188 188.645L145.259 196.386L171.892 197.308L170.049 190.58Z" fill="#FF234A"/>
<path d="M145.167 198.782L171.8 199.796L171.892 197.4L145.259 196.386L145.167 198.782Z" fill="white"/>
<path d="M153.83 80.6372C153.83 80.6372 150.143 94.9215 152.355 135.839L155.673 182.747H172.814L167.93 81.3745L153.83 80.6372Z" fill="#6451C5"/>
<path d="M202.304 183.945L193.181 170.859L200.461 166.343L209.492 180.535L202.304 184.59V183.945Z" fill="#ECACA1"/>
<path d="M207.833 176.665C207.833 176.665 204.332 183.116 199.079 181.733L192.996 197.4L213.639 180.535L207.833 176.665Z" fill="#FF234A"/>
<path d="M194.563 199.243L215.206 182.286L213.732 180.443L193.088 197.4L194.563 199.243Z" fill="white"/>
<path d="M177.698 85.0608C177.698 85.0608 183.596 90.6823 183.412 106.81C183.228 122.937 188.296 139.71 188.296 139.71L169.773 141.645C169.773 141.645 159.267 119.62 155.765 86.4431L177.698 85.0608Z" fill="#6451C5"/>
<path d="M184.057 131.692C184.057 131.692 205.622 153.718 211.981 169.384L195.024 178.047L169.957 141.737L184.057 131.692Z" fill="#6451C5"/>
<path d="M171.247 143.765C171.247 143.765 167.192 140.539 165.073 131.692C163.045 122.845 159.912 107.731 159.912 107.731L156.226 103.124" stroke="#B2ACC7" stroke-width="0.55"/>
<circle cx="176.132" cy="9.2157" r="8.57059" fill="#081669"/>
<circle cx="168.114" cy="16.4961" r="7.09608" fill="#FF234A"/>
<path d="M157.7 34.8353L161.294 45.7098L171.247 41.6549L165.718 25.3431L157.7 34.8353Z" fill="#ECACA1"/>
<path d="M159.82 41.1941C159.728 41.0098 161.663 34.3745 161.663 34.3745L157.516 36.2176L159.82 41.1941Z" fill="#ED9083"/>
<path d="M154.659 12.2569C154.659 12.2569 149.498 13.0863 149.222 19.6294C149.222 19.6294 149.037 24.3294 148.945 31.149C148.853 34.7432 152.079 37.6 155.581 36.8628C157.7 36.402 160.096 35.4804 162.216 33.8216L165.165 31.0569C172.169 23.2235 165.718 10.7824 155.396 12.1647C155.212 12.1647 154.935 12.1647 154.659 12.2569Z" fill="#ECACA1"/>
<path d="M150.143 25.6196L147.655 28.2C147.194 28.5686 147.286 29.4902 147.747 29.4902L150.051 29.7667V25.6196H150.143Z" fill="#ECACA1"/>
<path d="M151.434 21.3804C151.434 21.3804 149.683 21.1039 149.59 21.8412C149.59 21.8412 149.498 22.3941 150.973 22.5784C152.447 22.7628 152.908 22.6706 153.092 22.2098C153.277 21.749 152.263 21.4726 151.434 21.3804Z" fill="#03041F"/>
<circle cx="151.003" cy="25.7784" r="0.737287" transform="rotate(-10.7481 151.003 25.7784)" fill="#03041F"/>
<path d="M149.75 31.4169C150.119 31.7855 151.501 31.6012 151.778 30.8639" stroke="#1D0A05" stroke-width="0.585933" stroke-linecap="round" stroke-linejoin="round"/>
<path d="M161.571 23.8686C161.571 23.8686 164.612 8.10981 150.973 14.4686C150.973 14.4686 156.226 5.80589 168.206 11.0588C170.694 12.1647 173.275 15.2059 173.828 17.8784C174.565 22.2098 172.169 25.9882 168.298 32.8078L163.69 27.4627C163.506 26.5412 161.571 23.8686 161.571 23.8686Z" fill="#081669"/>
<path d="M165.994 19.2608L163.23 25.8039C145.812 20.3667 153.737 12.1647 153.737 12.1647C153.737 12.1647 167.837 7.92549 165.994 19.2608Z" fill="#081669"/>
<path d="M157.147 22.3941L160.281 26.2647L162.677 21.749L157.147 22.3941Z" fill="#03041F"/>
<path d="M156.226 12.9941C156.226 12.9941 150.235 14.0079 149.406 18.1549C149.406 18.1549 148.392 13.6392 154.014 11.6118C159.543 9.49217 156.226 12.9941 156.226 12.9941Z" fill="#03041F"/>
<circle cx="163.23" cy="25.1588" r="3.4098" fill="#ECACA1"/>
<path d="M162.124 26.449C162.124 26.449 161.939 23.9608 164.335 24.1451" stroke="#1D0A05" stroke-width="0.585933" stroke-linecap="round" stroke-linejoin="round"/>
<path d="M180.186 45.1569C180.186 45.1569 193.918 53.9118 196.037 80.3608C196.314 83.4941 194.102 86.1666 190.969 86.6274C188.02 87.0882 184.241 85.2451 183.412 82.3882L174.196 55.202L180.186 45.1569Z" fill="#F8D44E"/>
<path d="M152.447 48.0137L142.402 67.551C141.02 70.6843 142.31 74.2784 145.259 75.9372C148.392 77.596 152.355 76.398 154.014 73.2647L165.257 54.3725C166.916 51.3313 166.179 47.6451 163.506 45.4333C160.004 42.3921 154.383 43.6823 152.447 48.0137Z" fill="#F8D44E"/>
<circle cx="116.967" cy="59.349" r="6.17451" fill="#ECACA1"/>
<path d="M115.769 53.3588C115.769 53.3588 116.045 50.8706 118.994 52.1608C121.483 53.2667 124.984 57.1372 122.128 62.5745L115.769 53.3588Z" fill="#ECACA1"/>
<path d="M135.306 60.6392L121.667 57.1372L118.626 65.247L133.279 69.3941L135.306 60.6392Z" fill="#EDAC9F"/>
<path d="M149.867 65.1549L125.261 56.7686L122.865 68.2882L145.628 76.3059C149.13 77.7804 153.184 75.6608 153.83 71.8823C154.475 68.9333 152.724 66.0765 149.867 65.1549Z" fill="#F8D44E"/>
<path d="M118.994 60.3627L114.939 63.6803C114.755 63.8647 114.386 63.7725 114.294 63.4039L107.659 49.396C107.475 49.0274 107.567 48.6588 107.751 48.4745L111.806 45.1568C111.99 44.9725 112.359 45.0647 112.451 45.4333L119.086 59.4411C119.271 59.7176 119.179 60.0862 118.994 60.3627Z" fill="#0F35A9"/>
<path d="M119.732 59.7176L115.4 63.3117C115.124 63.496 114.847 63.4039 114.663 63.0353L108.12 48.9353C107.935 48.5666 108.028 48.198 108.304 48.0137L112.635 44.4196C112.912 44.2353 113.188 44.3274 113.373 44.6961L119.916 58.796C120.008 59.0725 120.008 59.5333 119.732 59.7176Z" fill="#6C51F7"/>
<path d="M120.653 55.3862L120.745 53.3588L117.428 50.7784C116.967 50.4098 116.23 50.5019 115.861 50.8706C115.584 51.147 115.4 51.6078 115.953 52.2529L120.377 55.6627" fill="#ECACA1"/>
<path d="M156.041 46.4471C154.014 49.3039 150.696 55.202 150.604 63.1274C150.604 63.3118 150.604 63.5882 150.604 63.7725C150.788 65.5235 150.235 78.702 149.959 85.5216C149.867 87.2725 150.788 90.6823 152.263 91.5117C155.396 93.2627 168.943 94.8294 180.186 91.6961C181.753 91.2353 182.675 89.5765 182.214 87.9176C181.016 83.7706 176.777 73.9098 179.726 66.0765C186.822 47.3686 180.002 43.9588 175.026 43.0373C174.381 42.9451 171.984 44.4196 171.339 44.4196L159.543 44.6039C158.161 44.5118 156.871 45.249 156.041 46.4471Z" fill="#FDD656"/>
<path d="M154.106 51.7C154.106 51.7 150.143 55.3863 150.696 65.8C150.696 65.8 150.42 70.7765 150.42 76.3059" stroke="#F3A12D" stroke-width="0.55"/>
<path d="M168.667 39.1667C168.667 39.1667 173.183 53.8196 188.296 55.5706C202.488 57.2294 201.014 53.0823 212.81 54.3725C212.81 54.3725 210.967 58.3353 204.147 64.9706C200.369 68.5647 200.553 71.2372 200.553 71.2372C200.553 71.2372 178.343 72.0666 169.588 60.6392C163.322 52.5294 161.847 42.1157 161.847 42.1157L168.667 39.1667Z" fill="#FF5A4C"/>
<path d="M214.93 58.0588C215.114 58.0588 215.39 57.8745 215.39 57.6902C215.39 57.4137 215.298 57.2294 215.022 57.1373L208.018 56.0314C207.741 56.0314 207.557 56.1235 207.465 56.4C207.465 56.6765 207.557 56.8608 207.833 56.9529L214.93 58.0588C214.93 58.0588 214.837 58.0588 214.93 58.0588Z" fill="#FF5A4C"/>
<path d="M212.349 61.3765C212.533 61.3765 212.81 61.1922 212.81 61.0078C212.81 60.7314 212.718 60.5471 212.441 60.4549L205.437 59.349C205.161 59.2569 204.977 59.4412 204.884 59.7176C204.884 59.9941 204.977 60.1784 205.253 60.2706L212.349 61.3765Z" fill="#FF5A4C"/>
<path d="M209.032 64.9706C209.216 64.9706 209.492 64.7863 209.492 64.602C209.492 64.3255 209.4 64.1412 209.124 64.049L202.12 62.9431C201.843 62.9431 201.659 63.0353 201.567 63.3118C201.567 63.5882 201.659 63.7726 201.935 63.8647L209.032 64.9706C208.939 64.9706 208.939 64.9706 209.032 64.9706Z" fill="#FF5A4C"/>
<path d="M205.898 69.2098C206.082 69.2098 206.359 69.0255 206.359 68.8412C206.359 68.5647 206.267 68.3804 205.99 68.2882L198.986 67.1824C198.71 67.0902 198.526 67.2745 198.433 67.551C198.433 67.8275 198.526 68.0118 198.802 68.1039L205.898 69.2098Z" fill="#FF5A4C"/>
<path d="M156.133 37.4157C158.99 37.9686 165.902 38.8902 170.879 35.0196C171.432 34.5588 172.169 34.7431 172.445 35.3882L175.21 42.3C175.394 42.6686 175.302 43.0372 175.026 43.4059C173.275 45.4333 166.086 52.7137 155.581 44.6039C155.304 44.4196 155.212 44.1431 155.212 43.8667L154.935 38.5216C154.935 37.8765 155.488 37.3235 156.133 37.4157Z" fill="#FF6C58"/>
<ellipse cx="161.294" cy="75.2608" rx="5.52941" ry="5.31378" fill="#ECACA1"/>
<path d="M156.041 74.0019C156.041 74.0019 154.198 72.3431 156.502 70.6843C158.806 69.0255 162.769 68.1039 166.086 72.6196L156.041 74.0019Z" fill="#ECACA1"/>
<path d="M164.335 72.5274L173.183 74.3706L171.247 81.4666L163.322 79.2549L164.335 72.5274Z" fill="#EDAC9F"/>
<path d="M183.688 75.1078C183.135 74.9235 168.575 72.6196 168.575 72.6196L167.1 82.849L189.771 86.7196L183.688 75.1078Z" fill="#F8D44E"/>
<path d="M186.73 75.4765L168.575 72.6196" stroke="#F3A12D" stroke-width="0.55"/>
<path d="M181.292 85.0607L167.192 82.849L167.469 80.3607" stroke="#F3A12D" stroke-width="0.55"/>
<g opacity="0.319987" filter="url(#filter1_f_301_602)">
<ellipse cx="106.094" cy="193.485" rx="24.2695" ry="6.79545" fill="#FFA446"/>
</g>
<path d="M98.302 150.239C98.302 150.239 138.757 131.419 158.516 79.6038" stroke="#372482" stroke-width="0.783978"/>
<ellipse cx="161.294" cy="75.2608" rx="5.52941" ry="5.31378" fill="#ECACA1"/>
<path d="M124.106 178.255C125.488 178.9 127.147 179.545 128.714 180.006C130.28 180.466 131.939 180.743 133.506 180.559C135.073 180.466 136.455 179.821 137.192 178.531C138.022 177.241 138.206 175.49 138.114 173.831C138.114 173.555 138.298 173.37 138.574 173.37C138.851 173.37 139.035 173.555 139.035 173.739C139.22 174.66 139.312 175.582 139.312 176.504C139.312 177.425 139.127 178.439 138.759 179.36C138.39 180.282 137.653 181.204 136.824 181.757C135.994 182.402 134.98 182.77 133.967 182.955C132.031 183.415 130.096 183.323 128.253 183.047C126.41 182.77 124.567 182.402 122.724 181.757C121.71 181.388 121.157 180.374 121.525 179.36C121.894 178.347 122.908 177.794 123.922 178.162C123.829 178.162 123.922 178.255 124.106 178.255Z" fill="#AD4600"/>
<path d="M113.508 178.992C113.508 178.992 110.374 176.227 107.149 179.637C103.924 183.047 113.969 191.249 113.969 191.249C113.969 191.249 108.163 190.511 107.057 194.29H120.512C121.065 194.29 121.618 193.829 121.618 193.184C121.618 192.17 121.249 191.249 120.696 190.511L117.747 186.825L113.508 178.992Z" fill="#AB4600"/>
<path d="M94.7078 171.343L90.1 191.433C90.1 191.433 86.3216 190.511 85.5843 194.29H91.9431L102.265 174.66L94.7078 171.343Z" fill="#A94612"/>
<path d="M94.9843 144.802L125.396 178.715C126.871 180.374 127.7 182.586 127.608 184.89C127.516 187.655 126.686 190.88 123.553 191.249C118.024 191.986 112.125 190.511 101.435 180.098C101.435 180.098 93.7863 177.886 92.4961 163.141L85.9529 153.833L94.9843 144.802Z" fill="#FF8149"/>
<path d="M118.3 178.992C118.3 178.992 115.167 176.227 111.941 179.637C108.716 183.047 118.761 191.249 118.761 191.249C118.761 191.249 112.955 190.511 111.849 194.29H125.304C125.857 194.29 126.41 193.829 126.41 193.184C126.41 192.17 126.041 191.249 125.488 190.511L122.539 186.825L118.3 178.992Z" fill="#FF8149"/>
<path d="M94.9843 144.802C94.9843 144.802 93.2333 141.945 90.2843 141.945C88.4412 141.945 86.5059 142.406 84.202 144.433C81.9902 146.46 77.5667 145.17 77.5667 145.17C77.5667 145.17 75.8157 151.529 85.9529 153.741L94.9843 144.802Z" fill="#FF8149"/>
<path d="M92.0353 142.406C92.0353 142.406 86.8745 147.935 89.7314 150.423C92.5882 152.911 93.6941 147.935 96.4588 146.553C96.4588 146.553 97.9333 144.802 95.7216 143.051C93.3255 141.208 92.0353 142.406 92.0353 142.406Z" fill="#5430B8"/>
<circle cx="78.3824" cy="146.382" r="1.38235" fill="#5430B8"/>
<path d="M88.902 158.533L87.3353 155.953C87.7961 155.953 95.0765 155.492 98.7627 149.041L100.514 151.16C96.3667 158.533 89.5471 158.533 88.902 158.533Z" fill="#FED748"/>
<circle cx="86.5529" cy="144.553" r="0.552941" fill="#28233C"/>
<path d="M97.5647 175.951L99.7765 191.433C99.7765 191.433 96.2745 191.064 95.8137 194.29H103.094L105.49 174.66L97.5647 175.951Z" fill="#FF8149"/>
<path d="M97.0118 163.602C94.3392 168.947 97.5647 173.555 97.5647 173.555L98.2098 181.941" stroke="#AB4600" stroke-width="0.643162" stroke-linecap="round" stroke-linejoin="round"/>
<path d="M113.508 178.255C113.508 178.255 110.006 181.204 113.231 186.457C115.259 189.682 118.761 191.341 118.761 191.341" stroke="#AB4600" stroke-width="0.643162" stroke-linecap="round" stroke-linejoin="round"/>
<path d="M104.476 182.862L105.398 172.817" stroke="#AB4600" stroke-width="0.643162" stroke-linecap="round" stroke-linejoin="round"/>
<defs>
<filter id="filter0_f_301_602" x="133.549" y="193.458" width="83.9107" height="13.0439" filterUnits="userSpaceOnUse" color-interpolation-filters="sRGB">
<feFlood flood-opacity="0" result="BackgroundImageFix"/>
<feBlend mode="normal" in="SourceGraphic" in2="BackgroundImageFix" result="shape"/>
<feGaussianBlur stdDeviation="1.31942" result="effect1_foregroundBlur_301_602"/>
</filter>
<filter id="filter1_f_301_602" x="79.1858" y="184.05" width="53.8166" height="18.8686" filterUnits="userSpaceOnUse" color-interpolation-filters="sRGB">
<feFlood flood-opacity="0" result="BackgroundImageFix"/>
<feBlend mode="normal" in="SourceGraphic" in2="BackgroundImageFix" result="shape"/>
<feGaussianBlur stdDeviation="1.31942" result="effect1_foregroundBlur_301_602"/>
</filter>
<linearGradient id="paint0_linear_301_602" x1="328" y1="7.31177" x2="34.4509" y2="7.31177" gradientUnits="userSpaceOnUse">
<stop stop-color="#FFC36E"/>
<stop offset="1" stop-color="#FED57F"/>
</linearGradient>
</defs>
</svg>
