<svg width="41" height="40" viewBox="0 0 41 40" fill="none" xmlns="http://www.w3.org/2000/svg">
<circle cx="20.0962" cy="19.963" r="19.963" fill="#7A40F2"/>
<mask id="mask0_301_121" style="mask-type:luminance" maskUnits="userSpaceOnUse" x="0" y="0" width="41" height="40">
<circle cx="20.0962" cy="19.963" r="19.963" fill="white"/>
</mask>
<g mask="url(#mask0_301_121)">
<path fill-rule="evenodd" clip-rule="evenodd" d="M13.9284 10.5177C12.8499 12.5624 10.3683 13.3155 8.19761 14.1114C6.0272 14.907 3.64107 16.3376 3.47474 18.6434C3.37053 20.0934 4.21549 21.4946 4.07158 22.9415C3.77468 25.9281 -0.124742 26.9324 -1.93251 29.3283C-3.23343 31.0527 -3.32402 33.5158 -2.42816 35.4814C-1.5323 37.447 0.23548 38.9291 2.21655 39.7904C6.30532 41.567 11.2727 40.7566 14.9061 38.1735C18.5392 35.5908 20.8769 31.422 21.7285 27.046C22.5801 22.6704 22.0348 18.105 20.713 13.8475C20.2219 12.2661 19.5293 10.5995 18.1023 9.75905C16.6757 8.91864 14.3771 9.50154 14.1172 11.1369L13.9284 10.5177Z" fill="#0A0F21"/>
<path fill-rule="evenodd" clip-rule="evenodd" d="M12.9874 14.631C12.9874 8.87138 17.2668 4.20274 22.5456 4.20274C27.8244 4.20274 32.1034 8.87138 32.1034 14.631C32.1034 20.3903 27.8244 25.0589 22.5456 25.0589C17.2668 25.0589 12.9874 20.3903 12.9874 14.631Z" fill="#0A0F21"/>
<path fill-rule="evenodd" clip-rule="evenodd" d="M15.6302 12.7329C15.6302 12.7329 13.5731 11.1057 13.5994 10.7443L12.9874 10.9903L14.8649 13.3243L15.6302 12.7329Z" fill="#FF05DB"/>
<path fill-rule="evenodd" clip-rule="evenodd" d="M10.7477 41.9071C10.7477 41.9071 18.1035 45.7022 22.1375 45.6096C26.285 45.5144 35.2921 41.3437 35.2921 41.3437C35.2921 41.3437 33.5285 32.1888 23.9498 34.2138C23.9498 34.2138 15.0082 31.9815 10.7477 41.9071Z" fill="#57C6FF"/>
<path fill-rule="evenodd" clip-rule="evenodd" d="M27.8001 24.0979L19.4617 25.5131L19.3848 35.6992C19.3848 35.6992 19.8635 38.3377 24.1749 38.4116C28.2443 38.4813 28.5154 35.5777 28.5154 35.5777L27.8001 24.0979L15.2297 33.3364Z" fill="#FBDED4"/>
<path fill-rule="evenodd" clip-rule="evenodd" d="M19.4178 31.3014L19.4617 25.5131L19.4178 31.3014Z" fill="#0A0F21"/>
<path fill-rule="evenodd" clip-rule="evenodd" d="M19.8456 31.3145C19.5738 31.3145 19.4193 31.3017 19.4178 31.3014L19.4617 25.5131L27.8001 24.0979L28.0077 27.4314C25.2855 31.0091 21.171 31.3145 19.8456 31.3145Z" fill="#F6D3C8"/>
<path fill-rule="evenodd" clip-rule="evenodd" d="M33.5707 19.4387C33.5707 20.2488 32.5851 21.3958 31.4539 21.0662C30.6762 20.8396 29.68 20.2488 29.68 19.4387C29.68 18.6283 30.8152 17.8139 31.6253 17.8139C32.9326 17.8139 33.5707 18.6283 33.5707 19.4387Z" fill="#FBDED4"/>
<path fill-rule="evenodd" clip-rule="evenodd" d="M32.1034 20.0394C32.1049 19.8625 32.134 19.6883 32.1919 19.5211C32.2537 19.3545 32.3182 19.1854 32.5033 19.046C32.5451 19.013 32.6209 18.9879 32.6872 18.9879C32.7223 18.9912 32.7614 18.9939 32.7917 19.0054C32.8199 19.0197 32.8484 19.0348 32.8744 19.053C32.9238 19.0891 32.949 19.1327 32.9847 19.1724C33.0314 19.2402 33.0308 19.2978 33.0335 19.3469C33.0347 19.5414 32.9756 19.7047 32.9008 19.8655C32.8805 19.6926 32.8702 19.5153 32.8396 19.3705C32.8305 19.3369 32.8166 19.3063 32.8105 19.3057L32.7399 19.2481C32.6951 19.2199 32.6863 19.2302 32.6393 19.256C32.5451 19.3163 32.4527 19.4672 32.3688 19.6029C32.2861 19.7447 32.1976 19.8904 32.1034 20.0394Z" fill="#EEA08E"/>
<path fill-rule="evenodd" clip-rule="evenodd" d="M14.2117 19.4387C14.2117 20.2488 15.1975 21.3958 16.3285 21.0662C17.1065 20.8396 18.1023 20.2488 18.1023 19.4387C18.1023 18.6283 16.9671 17.8139 16.157 17.8139C14.8497 17.8139 14.2117 18.6283 14.2117 19.4387Z" fill="#FBDED4"/>
<path fill-rule="evenodd" clip-rule="evenodd" d="M15.679 20.0394C15.585 19.8904 15.4966 19.7447 15.4139 19.6029C15.3296 19.4672 15.2372 19.3163 15.1427 19.256C15.0964 19.2302 15.0876 19.2199 15.0427 19.2481L14.9718 19.3057C14.9658 19.3063 14.9518 19.3369 14.9428 19.3705C14.9122 19.5153 14.9019 19.6926 14.8819 19.8655C14.8067 19.7047 14.7476 19.5414 14.7489 19.3469C14.7519 19.2978 14.7513 19.2402 14.7976 19.1724C14.8334 19.1327 14.8585 19.0891 14.9079 19.053C14.934 19.0348 14.9624 19.0197 14.9906 19.0054C15.0212 18.9939 15.06 18.9912 15.0951 18.9879C15.1615 18.9879 15.2372 19.013 15.2793 19.046C15.4645 19.1854 15.5287 19.3545 15.5905 19.5211C15.6487 19.6883 15.6774 19.8625 15.679 20.0394Z" fill="#EEA08E"/>
<path fill-rule="evenodd" clip-rule="evenodd" d="M31.6199 17.3282C31.7644 22.9861 29.0862 28.3939 24.4348 28.513C19.7832 28.6317 16.4239 23.8022 16.2794 18.1444C16.1349 12.4866 19.2593 8.14336 23.9107 8.0243C28.5624 7.90523 31.4751 11.6704 31.6199 17.3282Z" fill="#FBDED4"/>
<path fill-rule="evenodd" clip-rule="evenodd" d="M21.2856 17.6155C21.278 17.9287 21.0835 18.1781 20.8517 18.1726C20.6196 18.1668 20.4376 17.9084 20.4451 17.5952C20.453 17.2819 20.6472 17.0326 20.8793 17.038C21.1114 17.0438 21.2931 17.3025 21.2856 17.6155Z" fill="#172133"/>
<path fill-rule="evenodd" clip-rule="evenodd" d="M27.3372 17.6155C27.3297 17.9287 27.1355 18.1781 26.9031 18.1726C26.6713 18.1668 26.4892 17.9084 26.4968 17.5952C26.5044 17.2819 26.6989 17.0326 26.931 17.038C27.1627 17.0438 27.3448 17.3025 27.3372 17.6155Z" fill="#172133"/>
<path fill-rule="evenodd" clip-rule="evenodd" d="M22.1375 20.5787C22.4326 20.9156 22.7337 21.2243 23.0627 21.4652C23.3927 21.7018 23.7508 21.8612 24.1128 21.849C24.4757 21.8527 24.8405 21.6888 25.1889 21.4703C25.5367 21.2464 25.8624 20.9614 26.2123 20.6781C26.033 21.0904 25.7785 21.4712 25.4358 21.7875C25.2647 21.9466 25.0677 22.0823 24.8475 22.1917C24.6242 22.2932 24.3746 22.3574 24.1176 22.3641C23.861 22.3626 23.6047 22.3038 23.3805 22.1953C23.1585 22.0826 22.9597 21.939 22.7985 21.7663C22.4723 21.4264 22.2456 21.0174 22.1375 20.5787Z" fill="#292929"/>
<path fill-rule="evenodd" clip-rule="evenodd" d="M23.6323 19.5147C23.7495 19.3363 23.8913 19.1966 24.0422 19.0709C24.1913 18.943 24.3524 18.834 24.5215 18.7367L24.5118 19.1933C24.3655 19.0824 24.2588 18.9509 24.1761 18.8146C24.0949 18.6767 24.0328 18.538 23.9901 18.3938C23.9013 18.1084 23.865 17.8148 23.8992 17.5194C24.0616 17.766 24.2022 18.0038 24.3509 18.2226C24.4297 18.3283 24.4976 18.4377 24.5815 18.5243C24.6621 18.6128 24.7433 18.691 24.8242 18.7431L25.1595 18.9597L24.8145 19.1996C24.6548 19.3108 24.4873 19.4099 24.3079 19.4902C24.1298 19.5729 23.9428 19.6414 23.7317 19.671C23.6759 19.6792 23.6244 19.6404 23.6165 19.5847L23.6323 19.5147Z" fill="#D1746F"/>
<path fill-rule="evenodd" clip-rule="evenodd" d="M28.0077 6.83154C26.325 5.46306 23.2548 6.04323 23.2548 6.04323C20.4563 6.38164 17.9075 8.00127 16.633 10.5155C14.6719 14.3835 16.3415 18.4574 16.3415 18.4574C20.8332 16.8305 23.6514 11.854 24.842 9.29613C25.3722 11.8658 26.99 15.3505 31.6253 17.8136C31.6253 17.8136 32.9423 10.8446 28.0077 6.83154Z" fill="#0A0F21"/>
</g>
</svg>
