<svg width="41" height="40" viewBox="0 0 41 40" fill="none" xmlns="http://www.w3.org/2000/svg">
<circle cx="20.0962" cy="19.963" r="19.963" fill="#FF9060"/>
<mask id="mask0_301_177" style="mask-type:luminance" maskUnits="userSpaceOnUse" x="0" y="0" width="41" height="40">
<circle cx="20.0962" cy="19.963" r="19.963" fill="white"/>
</mask>
<g mask="url(#mask0_301_177)">
<path fill-rule="evenodd" clip-rule="evenodd" d="M9 39C9 39 17.3333 44 21 44C24 44 31 39 31 39C31 39 28.3368 28.4693 20.6256 30.0996C20.6256 30.0996 13 29 9 39Z" fill="#78ECF1"/>
<path fill-rule="evenodd" clip-rule="evenodd" d="M23.3156 21.9557L16.6024 23.0949L16.5407 31.2954C16.5407 31.2954 16.9261 33.4196 20.3971 33.4791C23.6732 33.5352 23.8912 31.1976 23.8912 31.1976L23.3156 21.9557Z" fill="#FFD3C5"/>
<path fill-rule="evenodd" clip-rule="evenodd" d="M16.5673 27.7549L16.6024 23.0949L16.5673 27.7549ZM23.4827 24.6393L23.3156 21.9557L23.4827 24.6393Z" fill="#E5B4AD"/>
<path opacity="0.312988" fill-rule="evenodd" clip-rule="evenodd" d="M16.9115 27.7654C16.6949 27.7654 16.571 27.7554 16.5673 27.7549L16.6024 23.0949L23.3156 21.9557L23.4827 24.6393C21.291 27.5196 17.9785 27.7654 16.9115 27.7654Z" fill="#E49789"/>
<path fill-rule="evenodd" clip-rule="evenodd" d="M22.2271 6.46492C18.6683 5.14516 14.6817 6.72931 12.7995 10.0252C10.6888 13.7203 10 18.3983 10 22.8859H29.4007C29.4007 22.8859 29.0205 16.9661 28.1544 14.4659C27.5785 12.8047 26.8102 8.16492 22.2271 6.46492Z" fill="#172133"/>
<path fill-rule="evenodd" clip-rule="evenodd" d="M27.4983 18.2739C27.4983 18.9264 26.7049 19.8498 25.7944 19.5844C25.168 19.402 24.3661 18.9264 24.3661 18.2739C24.3661 17.6218 25.2802 16.9661 25.9322 16.9661C26.9849 16.9661 27.4983 17.6218 27.4983 18.2739Z" fill="#FFD3C5"/>
<path fill-rule="evenodd" clip-rule="evenodd" d="M26.3173 18.7578C26.3183 18.6154 26.3417 18.4752 26.3885 18.3405C26.4381 18.2064 26.49 18.07 26.639 17.9578C26.6729 17.9315 26.7339 17.9113 26.7871 17.9113C26.8154 17.9139 26.8468 17.9159 26.8715 17.9252C26.8942 17.9369 26.9171 17.9491 26.9378 17.9635C26.9778 17.9927 26.9981 18.0276 27.0268 18.0598C27.0642 18.1144 27.0637 18.1608 27.0661 18.2003C27.0671 18.3566 27.0193 18.4881 26.959 18.6178C26.9429 18.4783 26.9346 18.3357 26.91 18.2193C26.9027 18.192 26.8915 18.1674 26.8863 18.1671L26.8295 18.1205C26.7934 18.0981 26.7863 18.1064 26.7488 18.1269C26.6729 18.1757 26.5985 18.2971 26.5307 18.4061C26.4642 18.5205 26.3929 18.6378 26.3173 18.7578Z" fill="#EEA08E"/>
<path fill-rule="evenodd" clip-rule="evenodd" d="M11.9134 18.2739C11.9134 18.9264 12.7068 19.8498 13.6173 19.5844C14.2439 19.402 15.0456 18.9264 15.0456 18.2739C15.0456 17.6218 14.132 16.9661 13.4795 16.9661C12.4268 16.9661 11.9134 17.6218 11.9134 18.2739Z" fill="#FFD3C5"/>
<path fill-rule="evenodd" clip-rule="evenodd" d="M13.0946 18.7578C13.0188 18.6378 12.9475 18.5205 12.881 18.4061C12.8132 18.2971 12.739 18.1757 12.6629 18.1269C12.6254 18.1064 12.6183 18.0981 12.5822 18.1205L12.5254 18.1671C12.5202 18.1674 12.509 18.192 12.5017 18.2193C12.4771 18.3357 12.4688 18.4783 12.4527 18.6178C12.3924 18.4881 12.3446 18.3566 12.3456 18.2003C12.348 18.1608 12.3475 18.1144 12.3849 18.0598C12.4139 18.0276 12.4341 17.9927 12.4739 17.9635C12.4949 17.9491 12.5175 17.9369 12.5402 17.9252C12.5649 17.9159 12.5963 17.9139 12.6246 17.9113C12.678 17.9113 12.739 17.9315 12.7727 17.9578C12.9217 18.07 12.9736 18.2064 13.0232 18.3405C13.07 18.4752 13.0934 18.6154 13.0946 18.7578Z" fill="#EEA08E"/>
<path fill-rule="evenodd" clip-rule="evenodd" d="M25.9278 16.5752C26.0442 21.13 23.8883 25.4837 20.1434 25.5796C16.3988 25.6752 13.6944 21.7869 13.5778 17.232C13.4615 12.6774 15.9771 9.18053 19.7217 9.08492C23.4664 8.98907 25.8112 12.0203 25.9278 16.5752Z" fill="#FFD3C5"/>
<path fill-rule="evenodd" clip-rule="evenodd" d="M17.6554 16.8064C17.6493 17.0583 17.4929 17.2593 17.3061 17.2547C17.1195 17.2503 16.9729 17.042 16.979 16.7898C16.9851 16.5376 17.1415 16.3369 17.3283 16.3415C17.5151 16.3461 17.6615 16.5542 17.6554 16.8064Z" fill="#172133"/>
<path fill-rule="evenodd" clip-rule="evenodd" d="M22.5273 16.8064C22.5212 17.0583 22.3646 17.2593 22.1781 17.2547C21.9912 17.2503 21.8449 17.042 21.851 16.7898C21.8571 16.5376 22.0134 16.3369 22.2003 16.3415C22.3871 16.3461 22.5334 16.5542 22.5273 16.8064Z" fill="#172133"/>
<path fill-rule="evenodd" clip-rule="evenodd" d="M18.3412 19.192C18.5788 19.4632 18.8212 19.7115 19.0861 19.9057C19.3517 20.0961 19.6402 20.2244 19.9315 20.2147C20.2237 20.2176 20.5176 20.0854 20.7978 19.9098C21.0778 19.7296 21.34 19.4998 21.6219 19.272C21.4776 19.6039 21.2724 19.9103 20.9966 20.1649C20.859 20.2932 20.7002 20.4022 20.5232 20.4905C20.3432 20.572 20.1424 20.6239 19.9354 20.6291C19.729 20.6281 19.5227 20.5805 19.3422 20.4932C19.1632 20.4025 19.0034 20.2871 18.8734 20.1478C18.611 19.8744 18.4283 19.5449 18.3412 19.192Z" fill="#D1746F"/>
<path fill-rule="evenodd" clip-rule="evenodd" d="M19.5449 18.3352C19.6393 18.1915 19.7532 18.0793 19.8746 17.9781C19.9949 17.8749 20.1246 17.7871 20.2602 17.7091L20.2527 18.0764C20.1351 17.9874 20.0493 17.8815 19.9827 17.7715C19.9171 17.6605 19.8673 17.5488 19.8329 17.4327C19.7615 17.203 19.732 16.9669 19.7598 16.7291C19.8905 16.9274 20.0037 17.1191 20.1232 17.2952C20.1866 17.38 20.2412 17.4681 20.309 17.5381C20.3737 17.6093 20.439 17.6722 20.5041 17.7142L20.7741 17.8883L20.4963 18.0815C20.3678 18.171 20.2329 18.251 20.0883 18.3157C19.9451 18.382 19.7946 18.4374 19.6246 18.4613C19.5798 18.4676 19.5385 18.4364 19.532 18.3917L19.5449 18.3352Z" fill="#D1746F"/>
<path fill-rule="evenodd" clip-rule="evenodd" d="M13.4795 16.9661C13.4795 16.9661 14.7639 15.4852 15.661 12.4C16.5278 9.41931 18.0385 11.5486 21.2819 11.5486C24.5254 11.5486 24.3661 10.3388 24.3661 10.3388C24.3661 10.3388 20.2859 5.71419 15.4476 9.62736C10.6093 13.5408 13.4795 16.9661 13.4795 16.9661Z" fill="#172133"/>
<path fill-rule="evenodd" clip-rule="evenodd" d="M23.6081 10.4744C23.6081 10.4744 23.2142 13.7166 25.1129 14.4905C25.7166 14.7364 25.5473 14.4856 25.9322 16.9661C25.9322 16.9661 27.1054 11.4196 23.6081 10.4744Z" fill="#172133"/>
</g>
</svg>
