<svg width="41" height="40" viewBox="0 0 41 40" fill="none" xmlns="http://www.w3.org/2000/svg">
<circle cx="20.0962" cy="19.963" r="19.963" fill="#FF9060"/>
<mask id="mask0_301_226" style="mask-type:luminance" maskUnits="userSpaceOnUse" x="0" y="0" width="41" height="40">
<circle cx="20.0962" cy="19.963" r="19.963" fill="white"/>
</mask>
<g mask="url(#mask0_301_226)">
<path d="M22.0053 15.9969C21.7981 16.722 21.2802 17.6544 21.4356 18.4313C21.4356 18.5349 21.4874 18.5867 21.5392 18.6385C21.6428 18.7421 21.7981 18.7421 21.9535 18.6903C23.6111 18.2759 24.647 16.2041 25.3204 14.7537C25.5275 14.2358 25.7347 13.7696 25.8383 13.1998C26.0455 11.8013 25.3204 10.2992 24.129 9.6258C23.6628 9.36682 23.0413 9.15963 22.5233 9.26322C21.9017 9.36682 21.1248 9.88479 21.0212 10.5064C20.8658 11.2833 21.591 11.5423 21.9017 12.1121C22.2125 12.6818 22.3161 13.407 22.3161 14.0286C22.3161 14.6501 22.2643 15.2717 22.1089 15.8415C22.0053 15.8933 22.0053 15.9451 22.0053 15.9969Z" fill="#110809"/>
<path d="M17.1364 24.2844C17.1364 23.7147 17.0846 23.1967 16.8774 22.6787C16.8256 22.5751 16.7738 22.4715 16.722 22.4197C16.5666 22.3161 16.3595 22.3679 16.2041 22.4197C13.925 23.3003 11.9049 24.388 10.0402 25.9419C8.48627 27.2369 6.77696 29.0498 6.36258 31.1217C6.1036 32.4166 6.1036 33.7115 6.41438 35.0065C6.67337 36.2496 7.24314 37.3891 7.81291 38.4769C8.22728 39.2538 8.69346 39.979 9.26323 40.6523C9.67761 41.1185 11.5423 43.553 12.2157 44.071C12.4747 43.8638 12.9408 43.3458 13.1998 43.0868C13.5624 42.7242 13.925 42.3617 14.2358 41.9473C13.407 40.7041 12.5265 39.5128 11.8531 38.2179C11.1279 36.9229 10.5582 35.4726 10.4546 33.9187C10.351 32.5202 11.1797 31.3806 12.1121 30.5001C13.148 29.4641 14.5983 28.998 15.6343 27.8584C15.9969 27.4441 16.3595 26.9779 16.6184 26.4599C16.8774 25.8383 17.1364 25.0614 17.1364 24.2844Z" fill="#FFC70E"/>
<path d="M22.0054 18.4313C21.85 19.2601 21.6946 20.0888 21.7982 20.9176C21.85 21.332 22.0054 21.7464 22.1608 22.1607C22.2643 22.3679 22.3161 22.5751 22.4197 22.7823C22.4715 22.9377 22.6787 23.2485 22.6787 23.4557C23.3003 25.3204 22.4197 27.6512 20.6586 28.6872C20.3996 28.8426 20.1407 28.9462 19.8817 28.998C19.5191 29.0498 19.2083 28.8944 18.8975 28.739C18.8457 28.6872 18.7939 28.6872 18.7421 28.6354C17.8098 28.0656 17.24 27.1851 16.981 26.1491C16.722 25.0096 17.0328 23.8182 17.499 22.7823C17.6026 22.5751 17.7062 22.3161 17.8098 22.1089C18.1206 21.332 18.1206 20.5032 18.1206 19.6745C18.0688 18.8975 17.8616 18.0688 18.017 17.2918C18.1206 16.6184 18.5349 16.0487 19.1047 15.6861C19.5709 15.3753 20.0889 15.2717 20.6068 15.3235C21.073 15.3753 21.6946 15.5307 21.9536 15.9451C22.1608 16.2559 22.2643 16.6702 22.2643 17.0846C22.2643 17.499 22.2125 17.8616 22.1608 18.2759C22.0054 18.2241 22.0054 18.3277 22.0054 18.4313Z" fill="#FFD8CC"/>
<path d="M16.722 11.2315C17.2918 10.7135 18.7939 11.1797 19.5709 11.0761C20.3996 11.0243 21.9018 10.7653 22.5233 11.4905C23.3521 12.4229 23.7147 14.0286 23.6629 15.2199C23.5593 17.5508 21.7464 19.6227 19.3637 19.6745C18.0688 19.7263 17.1364 18.8975 16.6184 17.499C16.5149 17.24 16.3077 16.4112 16.2559 16.1523C15.8933 14.6501 16.1005 11.8013 16.722 11.2315Z" fill="#FFD8CC"/>
<path fill-rule="evenodd" clip-rule="evenodd" d="M18.0753 14.1355C18.0681 14.4116 17.883 14.6313 17.6625 14.6265C17.4418 14.6214 17.2685 14.3937 17.2757 14.1177C17.2832 13.8416 17.468 13.6219 17.6888 13.6267C17.9096 13.6317 18.0825 13.8597 18.0753 14.1355Z" fill="#172133"/>
<path fill-rule="evenodd" clip-rule="evenodd" d="M20.6007 14.1405C20.5935 14.4166 20.4087 14.6363 20.1876 14.6315C19.9671 14.6264 19.7939 14.3987 19.8011 14.1226C19.8083 13.8466 19.9934 13.6268 20.2142 13.6317C20.4347 13.6367 20.6079 13.8647 20.6007 14.1405Z" fill="#172133"/>
<path d="M23.1449 15.4271C23.1449 15.8415 23.4557 16.2041 23.8183 16.1523C24.1808 16.1005 24.388 15.7379 24.388 15.3235C24.388 14.9091 24.0772 14.5465 23.7147 14.5983C23.3521 14.5983 23.1449 15.0127 23.1449 15.4271Z" fill="#FAD9CF"/>
<path d="M15.7897 15.4789C15.7897 15.8933 16.1005 16.2559 16.463 16.2041C16.8256 16.1523 17.0328 15.7897 17.0328 15.3753C17.0328 14.9609 16.722 14.5983 16.3594 14.6501C16.0487 14.6501 15.7897 15.0127 15.7897 15.4789Z" fill="#FAD9CF"/>
<path d="M27.7549 23.6629C26.9779 22.9895 25.9419 22.6787 24.9578 22.4197C24.2844 22.2125 23.6111 22.0571 22.9895 21.85C22.7823 21.7982 22.3161 21.5392 22.109 21.6428C21.9018 21.7464 21.9018 22.1089 21.7982 22.2643C21.4356 22.9895 20.5032 23.9736 19.7781 24.3362C19.7263 24.4398 19.6227 24.4916 19.5191 24.4916C19.4673 24.4916 19.4155 24.4916 19.3637 24.4398C19.3119 24.4398 19.2601 24.4398 19.2083 24.4398C18.5349 24.2326 18.3796 23.4039 18.0688 22.8859C17.5508 22.0571 16.4631 22.3161 15.7897 22.7823C15.0127 23.3521 14.5466 24.2844 14.2358 25.165C13.5106 27.3923 13.5624 29.6195 14.1322 31.8468C14.7537 34.2813 15.0645 36.7676 15.2717 39.2538C15.3753 40.6523 15.3753 42.0509 15.5307 43.4494C15.6861 44.8479 16.722 44.2782 17.7062 44.1746C18.1724 44.1228 18.6903 44.1746 19.1565 44.1746L22.7305 44.2264C23.4557 44.2264 24.2844 44.1746 25.0096 44.2782C25.3722 44.33 25.7866 44.4853 26.0455 44.1228C26.3045 43.7602 26.3045 42.8278 26.3563 42.4135C26.5117 40.6006 26.7189 38.7876 26.7189 36.9747C26.7707 36.1978 26.8225 35.4208 26.9261 34.6439C27.1851 32.6756 27.7549 30.7073 28.0656 28.7908C28.1692 28.221 28.2728 27.5994 28.3246 27.0297C28.3246 26.0455 28.5836 24.388 27.7549 23.6629Z" fill="#FFDA3B"/>
<path d="M21.7982 20.9694L23.3521 22.0053L21.4356 26.2009L19.4673 24.5434L21.7982 20.9694Z" fill="white"/>
<path d="M17.8616 21.332L16.8774 22.3161L17.5508 26.2009L19.4673 24.5434L17.8616 21.332Z" fill="white"/>
<path d="M20.2891 16.5076C20.2373 17.0255 19.6676 17.4399 18.9942 17.4399C18.3208 17.4399 17.7511 17.0255 17.6993 16.5076C17.6993 16.5076 18.5541 16.9219 18.9942 16.9219C19.4174 16.9219 20.2891 16.5076 20.2891 16.5076Z" fill="#D09483"/>
<path d="M30.0857 41.0149C30.1893 42.8278 29.6714 47.4378 29.1534 48.8881C29.1534 48.8881 30.5001 49.1471 31.1217 49.3025C31.3289 49.3543 31.5879 49.4061 31.7951 49.4579C31.8986 49.4579 33.1418 45.4177 33.1936 45.0551C33.8151 42.8796 34.3331 40.4452 34.1259 38.1661C33.6598 33.6079 31.8986 29.2052 29.257 25.4758C28.6872 24.647 28.0139 23.8182 27.1851 23.3003C27.0297 23.1967 26.8743 23.0931 26.6671 23.0931C25.2168 22.8341 24.7506 25.2168 24.8542 26.1491C24.906 27.0297 25.3722 27.8584 25.7866 28.5318C26.8225 30.2929 27.9621 31.6396 28.6354 33.5561C29.516 35.9906 29.9821 38.3733 30.0857 41.0149Z" fill="#FFC70E"/>
<path d="M24.9578 14.5983C25.0096 14.4947 25.0096 14.3394 25.0614 14.2358C25.2686 13.4588 25.3722 12.63 25.2686 11.8013C25.165 10.8171 24.7506 9.88479 23.9737 9.26322C23.0931 8.53806 21.9536 8.12369 20.7622 8.07189C19.1047 8.07189 17.1882 9.00424 16.5149 10.5582C16.3077 11.0243 16.2559 11.5941 16.1005 12.0603C15.9969 12.5782 15.7897 13.0962 15.4271 13.4588C15.7379 13.5624 16.0487 13.4588 16.3077 13.3034C17.2918 12.7336 18.2242 11.8531 18.8457 10.9207C19.1565 11.4905 19.5191 12.0085 19.9853 12.4747C20.0371 12.5265 20.0889 12.5782 20.1407 12.5782C20.5033 12.889 20.8658 13.1998 21.2802 13.4588C21.7982 13.8214 22.368 14.1322 22.9377 14.2876C23.2485 14.3912 23.6111 14.4429 23.9219 14.5983C24.2327 14.7537 24.4916 15.0127 24.5434 15.3235C24.4916 15.1163 24.647 15.0127 24.7506 14.8055C24.8542 14.8573 24.906 14.7019 24.9578 14.5983Z" fill="#110809"/>
<path d="M24.0773 6.31078C23.4557 6.36258 22.9895 6.77696 22.8341 7.39852C22.5751 8.27908 23.0931 9.15963 22.5751 9.93659C22.3162 10.351 22.7305 10.7135 23.0931 10.6618C23.6629 11.0243 24.6988 10.7135 25.2168 10.5064C25.8384 10.2474 26.4081 9.7812 26.4599 9.10783C26.5635 7.8129 25.5276 6.15539 24.0773 6.31078Z" fill="#110809"/>
</g>
</svg>
