<svg width="41" height="40" viewBox="0 0 41 40" fill="none" xmlns="http://www.w3.org/2000/svg">
<circle cx="20.0962" cy="19.963" r="19.963" fill="#FF9060"/>
<mask id="mask0_301_206" style="mask-type:luminance" maskUnits="userSpaceOnUse" x="0" y="0" width="41" height="40">
<circle cx="20.0962" cy="19.963" r="19.963" fill="white"/>
</mask>
<g mask="url(#mask0_301_206)">
<path d="M12.5171 31.0969C12.9366 29.9223 13.5239 28.9154 14.363 27.9925C16.6284 25.3915 20.1523 23.4617 23.5923 23.5456C23.2567 26.65 22.8372 29.8384 22.3338 32.9428C21.6626 36.9701 21.1591 40.9136 19.1455 44.5215C16.2088 43.0951 12.6849 42.8434 10 40.9136C10.5873 38.1448 11.5103 33.6979 12.5171 31.0969Z" fill="#3E64E9"/>
<path d="M16.3766 27.4891C18.5581 24.8042 21.9982 22.7066 25.4382 23.2939C29.2978 23.8812 32.6539 26.65 34.8354 29.9223C37.0169 33.1945 38.2754 37.0541 39.2822 40.8297C40.373 44.8571 41.4637 48.7166 41.8832 52.8279C42.3028 57.023 42.4706 61.2182 42.6384 65.4134C42.6384 65.749 42.6384 66.0846 42.4706 66.4202C42.135 67.0075 41.2959 67.1754 40.6247 67.1754C37.5203 67.3432 34.4998 67.2593 31.3114 67.2593C29.046 67.1754 26.6967 67.0075 24.4314 66.7558C22.9211 66.588 20.1523 66.7558 19.7328 64.91C18.4742 59.4562 17.2996 54.0864 16.041 48.6327C15.202 44.8571 14.363 41.1653 13.9434 37.3897C13.6917 35.0404 13.6078 32.3555 14.6986 30.0901C15.1181 29.1671 15.7054 28.2442 16.3766 27.4891Z" fill="#424BFF"/>
<path d="M20.9913 30.5096C23.2567 30.0901 24.767 27.9086 24.1796 25.6432L22.166 16.3299L14.7825 17.6724L16.2088 27.0696C16.6283 29.3349 18.7259 30.9291 20.9913 30.5096Z" fill="#FBE1D9"/>
<path d="M17.803 22.7066C18.642 22.8744 19.565 22.6227 20.3201 21.9515C21.0752 21.2802 21.5786 20.4412 22.166 19.6861C23.4245 17.6724 24.767 15.5748 24.6831 13.2255C24.5992 11.5474 23.4245 10.1211 21.9982 9.28206C20.6557 8.44302 18.5581 7.43618 17.1318 8.35912C16.4605 8.77864 15.9571 9.44986 15.5376 10.1211C14.0273 12.7221 13.44 15.8265 13.8595 18.7631C14.1951 20.7768 15.7054 22.371 17.803 22.7066Z" fill="#FFE0D7"/>
<path fill-rule="evenodd" clip-rule="evenodd" d="M20.8235 7.7718C22.7533 8.10741 24.8509 9.11425 25.5221 11.044C26.1094 12.6382 26.1094 14.4002 25.4382 15.7426C25.1865 16.3299 24.8509 17.0012 24.5153 17.5885C24.3922 17.8039 24.2691 18.0164 24.1471 18.2272C23.6035 19.1659 23.0805 20.0692 22.6694 21.0285C22.2499 22.0354 21.6626 22.9583 20.8235 23.5456C19.3972 24.5525 17.0479 24.6364 15.4537 23.9651C13.3561 23.0422 12.7688 20.8607 12.7688 18.847C12.7688 16.6655 14.7825 16.246 16.6284 16.7495C17.9708 17.169 18.8937 18.008 19.6489 19.0987C19.6908 19.0987 19.7118 19.0778 19.7328 19.0568C19.7538 19.0358 19.7747 19.0148 19.8167 19.0148C20.8235 18.1758 21.4947 17.0851 21.9982 15.9943C22.013 15.9588 22.0278 15.9233 22.0426 15.888C22.4462 14.9222 22.8194 14.029 22.3338 13.0577C21.9982 12.2187 21.1591 11.7992 20.3201 11.5474C20.1607 11.4971 20.0046 11.4468 19.8512 11.3973C18.47 10.9517 17.2996 10.5742 15.7893 10.8762C15.2859 11.044 14.7825 11.1279 14.363 11.044C13.7756 10.9601 13.3561 10.4567 13.2722 9.86938C13.1044 9.36596 13.2722 8.77864 13.6078 8.27522C14.1113 7.52009 14.9503 7.01667 15.8732 7.01667C16.4852 6.94867 17.042 7.10108 17.5884 7.25063C17.7162 7.28562 17.8435 7.32046 17.9708 7.35228C18.5209 7.50229 19.1007 7.5629 19.6749 7.62291C20.0641 7.66359 20.4506 7.704 20.8235 7.7718ZM14.0273 17.8402C13.1883 18.6792 15.8732 20.1056 16.3766 20.1895C17.2157 20.3573 18.1386 20.1056 18.9776 19.6022C18.3903 18.847 17.7191 18.0919 16.7962 17.7563C15.9571 17.4207 14.6986 17.169 14.0273 17.8402Z" fill="#3D2A21"/>
<path d="M20.7396 16.7495C20.5718 17.3368 20.9913 18.008 21.5787 18.1758C22.166 18.3436 22.8372 17.9241 23.005 17.3368C23.1728 16.7495 22.7533 16.0782 22.166 15.9104C21.4947 15.7426 20.8235 16.1621 20.7396 16.7495Z" fill="#FBE1D9"/>
<path d="M17.6352 18.7631C17.6352 18.7631 17.0479 19.3505 16.125 19.0987C15.1181 18.847 14.9503 18.1758 14.9503 18.1758" stroke="#110809" stroke-width="0.5"/>
</g>
</svg>
