<svg width="41" height="40" viewBox="0 0 41 40" fill="none" xmlns="http://www.w3.org/2000/svg">
<circle cx="20.0962" cy="19.963" r="19.963" fill="#FF9060"/>
<mask id="mask0_301_149" style="mask-type:luminance" maskUnits="userSpaceOnUse" x="0" y="0" width="41" height="40">
<circle cx="20.0962" cy="19.963" r="19.963" fill="white"/>
</mask>
<g mask="url(#mask0_301_149)">
<path fill-rule="evenodd" clip-rule="evenodd" d="M11.054 35.8197C7.76023 43.4935 30.027 45.9117 30.027 39.6326C30.027 33.3535 28.6638 28.7419 21.2582 30.3075C21.2582 30.3075 14.3478 28.146 11.054 35.8197Z" fill="#E0FF66"/>
<path fill-rule="evenodd" clip-rule="evenodd" d="M23.8416 24.0677L17.3948 24.8585L17.3353 30.5511C17.3353 30.5511 17.7051 32.0256 21.0387 32.067C24.185 32.1061 24.3944 30.4832 24.3944 30.4832L23.8416 24.0677Z" fill="#F5CDC0"/>
<path fill-rule="evenodd" clip-rule="evenodd" d="M24.0023 26.6447L23.8416 24.0677L24.0023 26.6447Z" fill="#E5B4AD"/>
<path opacity="0.140137" fill-rule="evenodd" clip-rule="evenodd" d="M17.6915 29.6471C17.4805 29.6471 17.361 29.637 17.361 29.637L17.3948 25.1618L23.8416 24.0677L24.0023 26.6447C21.8974 29.411 18.7163 29.6471 17.6915 29.6471Z" fill="#E49789"/>
<path fill-rule="evenodd" clip-rule="evenodd" d="M13.9578 16.7617C13.9578 12.6384 16.9457 9.29568 20.6316 9.29568C24.3171 9.29568 27.305 12.6384 27.305 16.7617C27.305 20.8851 24.3171 24.2276 20.6316 24.2276C16.9457 24.2276 13.9578 20.8851 13.9578 16.7617Z" fill="#7B0000"/>
<path fill-rule="evenodd" clip-rule="evenodd" d="M28.0697 20.4787C28.0697 21.1053 27.3078 21.9921 26.4334 21.7373C25.8316 21.5621 25.0617 21.1053 25.0617 20.4787C25.0617 19.8524 25.9391 19.2228 26.5657 19.2228C27.5767 19.2228 28.0697 19.8524 28.0697 20.4787Z" fill="#F5CDC0"/>
<path fill-rule="evenodd" clip-rule="evenodd" d="M26.9354 20.9434C26.9365 20.8066 26.959 20.672 27.0038 20.5427C27.0513 20.4138 27.1014 20.2829 27.2446 20.1754C27.2769 20.1499 27.3354 20.1306 27.3867 20.1304C27.4139 20.133 27.4441 20.1349 27.4678 20.1438C27.4893 20.155 27.5113 20.1667 27.5315 20.1805C27.5697 20.2086 27.5891 20.2421 27.6168 20.2733C27.6528 20.3255 27.6524 20.37 27.6547 20.408C27.6554 20.5581 27.6097 20.6844 27.5519 20.809C27.5364 20.675 27.5282 20.538 27.5048 20.4263C27.4975 20.4 27.487 20.3764 27.4821 20.3761L27.4275 20.3314C27.3926 20.3098 27.386 20.3178 27.35 20.3375C27.2769 20.3843 27.2057 20.501 27.1406 20.6057C27.0766 20.7155 27.0082 20.8282 26.9354 20.9434Z" fill="#EEA08E"/>
<path fill-rule="evenodd" clip-rule="evenodd" d="M13.1024 20.4787C13.1024 21.1053 13.8644 21.9921 14.739 21.7373C15.3405 21.5621 16.1105 21.1053 16.1105 20.4787C16.1105 19.8524 15.233 19.2228 14.6064 19.2228C13.5957 19.2228 13.1024 19.8524 13.1024 20.4787Z" fill="#F5CDC0"/>
<path fill-rule="evenodd" clip-rule="evenodd" d="M14.2368 20.9434C14.164 20.8282 14.0956 20.7155 14.0316 20.6057C13.9667 20.501 13.8953 20.3843 13.8225 20.3375C13.7861 20.3178 13.7796 20.3098 13.7449 20.3314L13.6901 20.3761C13.6854 20.3764 13.6747 20.4 13.6676 20.4263C13.644 20.538 13.636 20.675 13.6203 20.809C13.5625 20.6844 13.5168 20.5581 13.5177 20.408C13.5198 20.37 13.5194 20.3255 13.5554 20.2733C13.5831 20.2421 13.6025 20.2086 13.6407 20.1805C13.6608 20.1667 13.6828 20.155 13.7046 20.1438C13.7283 20.1349 13.7583 20.133 13.7854 20.1304C13.8367 20.1306 13.8953 20.1499 13.9276 20.1754C14.0707 20.2829 14.1209 20.4138 14.1684 20.5427C14.2132 20.672 14.2356 20.8066 14.2368 20.9434Z" fill="#EEA08E"/>
<path fill-rule="evenodd" clip-rule="evenodd" d="M26.5615 18.8473C26.6732 23.2216 24.6026 27.4027 21.0064 27.4947C17.4102 27.5866 14.8128 23.8524 14.7011 19.4781C14.5891 15.104 17.005 11.7458 20.6014 11.6539C24.1976 11.5619 26.4495 14.473 26.5615 18.8473Z" fill="#F5CDC0"/>
<path fill-rule="evenodd" clip-rule="evenodd" d="M27.924 10.3701C27.924 12.7837 25.9675 14.7402 23.5539 14.7402C21.1402 14.7402 19.1836 12.7837 19.1836 10.3701C19.1836 7.95656 21.1402 6 23.5539 6C25.9675 6 27.924 7.95656 27.924 10.3701Z" fill="#7B0000"/>
<path fill-rule="evenodd" clip-rule="evenodd" d="M17.6442 10.2677C17.6442 10.2677 20.0336 17.8527 26.6625 18.5184C26.6625 18.5184 28.7903 10.0857 19.8425 10.0857L17.6442 10.2677Z" fill="#7B0000"/>
<path fill-rule="evenodd" clip-rule="evenodd" d="M14.4645 19.2228C14.4645 19.2228 14.5308 18.9712 14.4947 18.2062C14.3368 14.8587 15.802 11.7146 18.1684 10.1089L19.3157 9.47692L18.6186 12.552C18.6186 12.552 19.8898 16.3799 14.4645 19.2228Z" fill="#7B0000"/>
<path fill-rule="evenodd" clip-rule="evenodd" d="M18.617 19.0693C18.6111 19.3115 18.461 19.5043 18.2813 19.4999C18.1021 19.4956 17.9614 19.2956 17.9674 19.0534C17.9731 18.8112 18.1234 18.6187 18.3029 18.6229C18.4823 18.6273 18.6228 18.8271 18.617 19.0693Z" fill="#172133"/>
<path fill-rule="evenodd" clip-rule="evenodd" d="M23.2958 19.0693C23.29 19.3115 23.1396 19.5043 22.9604 19.4999C22.781 19.4956 22.6402 19.2956 22.6463 19.0534C22.6519 18.8112 22.8023 18.6187 22.9815 18.6229C23.1611 18.6273 23.3017 18.8271 23.2958 19.0693Z" fill="#172133"/>
<path fill-rule="evenodd" clip-rule="evenodd" d="M19.2757 21.3604C19.5036 21.6208 19.7364 21.8593 19.991 22.0457C20.2459 22.2287 20.523 22.3519 20.8029 22.3425C21.0835 22.3453 21.3655 22.2184 21.6346 22.0497C21.9038 21.8766 22.1556 21.6562 22.4261 21.4372C22.2874 21.756 22.0907 22.0502 21.8258 22.2947C21.6932 22.4179 21.5412 22.5229 21.3709 22.6074C21.1983 22.6857 21.0053 22.7356 20.8066 22.7405C20.6082 22.7395 20.4101 22.6939 20.2367 22.6103C20.065 22.5229 19.9114 22.4121 19.7868 22.2786C19.5345 22.0158 19.3591 21.6993 19.2757 21.3604Z" fill="#D1746F"/>
<path fill-rule="evenodd" clip-rule="evenodd" d="M20.4314 20.5375C20.522 20.3998 20.6316 20.2918 20.7483 20.1946C20.8635 20.0957 20.9881 20.0112 21.1186 19.9365L21.1114 20.289C20.9985 20.2035 20.9158 20.1018 20.8518 19.9962C20.7888 19.8896 20.741 19.7823 20.708 19.6708C20.6394 19.4502 20.6113 19.2235 20.6377 18.9951C20.7635 19.1855 20.872 19.3696 20.987 19.5387C21.0479 19.6203 21.1003 19.7048 21.1652 19.772C21.2275 19.8404 21.2903 19.9009 21.3528 19.9412L21.6121 20.1084L21.3454 20.2939C21.2219 20.3801 21.0924 20.4567 20.9537 20.5188C20.816 20.5825 20.6715 20.6357 20.5082 20.6586C20.4651 20.6647 20.4253 20.6347 20.4192 20.5919L20.4314 20.5375Z" fill="#D1746F"/>
</g>
</svg>
